<mxfile host="app.diagrams.net" modified="2023-09-05T07:31:38.613Z" agent="Mozilla/5.0 (Windows NT 10.0; Win64; x64) AppleWebKit/537.36 (KHTML, like Gecko) Chrome/116.0.0.0 Safari/537.36" etag="5tYSkxC9UUIIS5dGxwBd" version="21.7.2" type="google" pages="2">
  <diagram id="6a731a19-8d31-9384-78a2-239565b7b9f0" name="Page-1">
    <mxGraphModel grid="1" page="1" gridSize="10" guides="1" tooltips="1" connect="1" arrows="1" fold="1" pageScale="1" pageWidth="1169" pageHeight="827" background="none" math="0" shadow="0">
      <root>
        <mxCell id="0" />
        <mxCell id="1" parent="0" />
        <mxCell id="1745" value="" style="edgeStyle=none;rounded=0;jumpStyle=none;html=1;shadow=0;labelBackgroundColor=none;startArrow=none;startFill=0;endArrow=classic;endFill=1;jettySize=auto;orthogonalLoop=1;strokeColor=#2F5B7C;strokeWidth=3;fontFamily=Helvetica;fontSize=16;fontColor=#23445D;spacing=5;" edge="1" parent="1" source="1749" target="1764">
          <mxGeometry relative="1" as="geometry" />
        </mxCell>
        <mxCell id="1746" value="" style="edgeStyle=none;rounded=0;jumpStyle=none;html=1;shadow=0;labelBackgroundColor=none;startArrow=none;startFill=0;endArrow=classic;endFill=1;jettySize=auto;orthogonalLoop=1;strokeColor=#2F5B7C;strokeWidth=3;fontFamily=Helvetica;fontSize=16;fontColor=#23445D;spacing=5;" edge="1" parent="1" source="1749" target="1771">
          <mxGeometry relative="1" as="geometry" />
        </mxCell>
        <mxCell id="1747" value="" style="edgeStyle=none;rounded=0;jumpStyle=none;html=1;shadow=0;labelBackgroundColor=none;startArrow=none;startFill=0;endArrow=classic;endFill=1;jettySize=auto;orthogonalLoop=1;strokeColor=#2F5B7C;strokeWidth=3;fontFamily=Helvetica;fontSize=16;fontColor=#23445D;spacing=5;" edge="1" parent="1" source="1749" target="1760">
          <mxGeometry relative="1" as="geometry" />
        </mxCell>
        <mxCell id="1748" value="" style="edgeStyle=none;rounded=0;jumpStyle=none;html=1;shadow=0;labelBackgroundColor=none;startArrow=none;startFill=0;endArrow=classic;endFill=1;jettySize=auto;orthogonalLoop=1;strokeColor=#2F5B7C;strokeWidth=3;fontFamily=Helvetica;fontSize=16;fontColor=#23445D;spacing=5;" edge="1" parent="1" source="1749" target="1753">
          <mxGeometry relative="1" as="geometry" />
        </mxCell>
        <mxCell id="1749" value="Advertising" style="rounded=1;whiteSpace=wrap;html=1;shadow=0;labelBackgroundColor=none;strokeColor=none;strokeWidth=3;fillColor=#2F5B7C;fontFamily=Helvetica;fontSize=16;fontColor=#FFFFFF;align=center;fontStyle=1;spacing=5;arcSize=7;perimeterSpacing=2;" vertex="1" parent="1">
          <mxGeometry x="495" y="380.5" width="150" height="70" as="geometry" />
        </mxCell>
        <mxCell id="1750" value="" style="edgeStyle=none;rounded=1;jumpStyle=none;html=1;shadow=0;labelBackgroundColor=none;startArrow=none;startFill=0;jettySize=auto;orthogonalLoop=1;strokeColor=#E85642;strokeWidth=3;fontFamily=Helvetica;fontSize=14;fontColor=#FFFFFF;spacing=5;fontStyle=1;fillColor=#b0e3e6;" edge="1" parent="1" source="1753" target="1756">
          <mxGeometry relative="1" as="geometry" />
        </mxCell>
        <mxCell id="1751" value="" style="edgeStyle=none;rounded=1;jumpStyle=none;html=1;shadow=0;labelBackgroundColor=none;startArrow=none;startFill=0;jettySize=auto;orthogonalLoop=1;strokeColor=#E85642;strokeWidth=3;fontFamily=Helvetica;fontSize=14;fontColor=#FFFFFF;spacing=5;fontStyle=1;fillColor=#b0e3e6;" edge="1" parent="1" source="1753" target="1755">
          <mxGeometry relative="1" as="geometry" />
        </mxCell>
        <mxCell id="1752" value="" style="edgeStyle=none;rounded=1;jumpStyle=none;html=1;shadow=0;labelBackgroundColor=none;startArrow=none;startFill=0;jettySize=auto;orthogonalLoop=1;strokeColor=#E85642;strokeWidth=3;fontFamily=Helvetica;fontSize=14;fontColor=#FFFFFF;spacing=5;fontStyle=1;fillColor=#b0e3e6;" edge="1" parent="1" source="1753" target="1754">
          <mxGeometry relative="1" as="geometry" />
        </mxCell>
        <mxCell id="1753" value="Embassy" style="rounded=1;whiteSpace=wrap;html=1;shadow=0;labelBackgroundColor=none;strokeColor=none;strokeWidth=3;fillColor=#e85642;fontFamily=Helvetica;fontSize=14;fontColor=#FFFFFF;align=center;spacing=5;fontStyle=1;arcSize=7;perimeterSpacing=2;" vertex="1" parent="1">
          <mxGeometry x="215" y="385.5" width="150" height="60" as="geometry" />
        </mxCell>
        <mxCell id="1754" value="Theories" style="rounded=1;whiteSpace=wrap;html=1;shadow=0;labelBackgroundColor=none;strokeColor=none;strokeWidth=3;fillColor=#f08e81;fontFamily=Helvetica;fontSize=14;fontColor=#FFFFFF;align=center;spacing=5;fontStyle=0;arcSize=7;perimeterSpacing=2;" vertex="1" parent="1">
          <mxGeometry x="65" y="504.5" width="150" height="60" as="geometry" />
        </mxCell>
        <mxCell id="1755" value="Appeal" style="rounded=1;whiteSpace=wrap;html=1;shadow=0;labelBackgroundColor=none;strokeColor=none;strokeWidth=3;fillColor=#f08e81;fontFamily=Helvetica;fontSize=14;fontColor=#FFFFFF;align=center;spacing=5;fontStyle=0;arcSize=7;perimeterSpacing=2;" vertex="1" parent="1">
          <mxGeometry x="14" y="385.5" width="150" height="60" as="geometry" />
        </mxCell>
        <mxCell id="1756" value="Layout" style="rounded=1;whiteSpace=wrap;html=1;shadow=0;labelBackgroundColor=none;strokeColor=none;strokeWidth=3;fillColor=#f08e81;fontFamily=Helvetica;fontSize=14;fontColor=#FFFFFF;align=center;spacing=5;fontStyle=0;arcSize=7;perimeterSpacing=2;" vertex="1" parent="1">
          <mxGeometry x="65" y="254.5" width="150" height="60" as="geometry" />
        </mxCell>
        <mxCell id="1757" value="" style="edgeStyle=none;rounded=0;jumpStyle=none;html=1;shadow=0;labelBackgroundColor=none;startArrow=none;startFill=0;endArrow=classic;endFill=1;jettySize=auto;orthogonalLoop=1;strokeColor=#1699D3;strokeWidth=3;fontFamily=Helvetica;fontSize=14;fontColor=#FFFFFF;spacing=5;" edge="1" parent="1" source="1760" target="1763">
          <mxGeometry relative="1" as="geometry" />
        </mxCell>
        <mxCell id="1758" value="" style="edgeStyle=none;rounded=0;jumpStyle=none;html=1;shadow=0;labelBackgroundColor=none;startArrow=none;startFill=0;endArrow=classic;endFill=1;jettySize=auto;orthogonalLoop=1;strokeColor=#1699D3;strokeWidth=3;fontFamily=Helvetica;fontSize=14;fontColor=#FFFFFF;spacing=5;" edge="1" parent="1" source="1760" target="1762">
          <mxGeometry relative="1" as="geometry" />
        </mxCell>
        <mxCell id="1759" value="" style="edgeStyle=none;rounded=0;jumpStyle=none;html=1;shadow=0;labelBackgroundColor=none;startArrow=none;startFill=0;endArrow=classic;endFill=1;jettySize=auto;orthogonalLoop=1;strokeColor=#1699D3;strokeWidth=3;fontFamily=Helvetica;fontSize=14;fontColor=#FFFFFF;spacing=5;" edge="1" parent="1" source="1760" target="1761">
          <mxGeometry relative="1" as="geometry" />
        </mxCell>
        <mxCell id="1760" value="Organization" style="rounded=1;whiteSpace=wrap;html=1;shadow=0;labelBackgroundColor=none;strokeColor=none;strokeWidth=3;fillColor=#1699d3;fontFamily=Helvetica;fontSize=14;fontColor=#FFFFFF;align=center;spacing=5;fontStyle=1;arcSize=7;perimeterSpacing=2;" vertex="1" parent="1">
          <mxGeometry x="495" y="570.5" width="150" height="60" as="geometry" />
        </mxCell>
        <mxCell id="1761" value="Content" style="rounded=1;whiteSpace=wrap;html=1;shadow=0;labelBackgroundColor=none;strokeColor=none;strokeWidth=3;fillColor=#64bbe2;fontFamily=Helvetica;fontSize=14;fontColor=#FFFFFF;align=center;spacing=5;arcSize=7;perimeterSpacing=2;" vertex="1" parent="1">
          <mxGeometry x="695" y="650.5" width="150" height="60" as="geometry" />
        </mxCell>
        <mxCell id="1762" value="Budget" style="rounded=1;whiteSpace=wrap;html=1;shadow=0;labelBackgroundColor=none;strokeColor=none;strokeWidth=3;fillColor=#64bbe2;fontFamily=Helvetica;fontSize=14;fontColor=#FFFFFF;align=center;spacing=5;arcSize=7;perimeterSpacing=2;" vertex="1" parent="1">
          <mxGeometry x="495" y="716.5" width="150" height="60" as="geometry" />
        </mxCell>
        <mxCell id="1763" value="Analysis" style="rounded=1;whiteSpace=wrap;html=1;shadow=0;labelBackgroundColor=none;strokeColor=none;strokeWidth=3;fillColor=#64bbe2;fontFamily=Helvetica;fontSize=14;fontColor=#FFFFFF;align=center;spacing=5;arcSize=7;perimeterSpacing=2;" vertex="1" parent="1">
          <mxGeometry x="295" y="650.5" width="150" height="60" as="geometry" />
        </mxCell>
        <mxCell id="1764" value="Marketing" style="rounded=1;whiteSpace=wrap;html=1;shadow=0;labelBackgroundColor=none;strokeColor=none;strokeWidth=3;fillColor=#F08705;fontFamily=Helvetica;fontSize=14;fontColor=#FFFFFF;align=center;spacing=5;fontStyle=1;arcSize=7;perimeterSpacing=2;" vertex="1" parent="1">
          <mxGeometry x="495" y="200.5" width="150" height="60" as="geometry" />
        </mxCell>
        <mxCell id="1765" value="Aims&lt;br&gt;" style="rounded=1;whiteSpace=wrap;html=1;shadow=0;labelBackgroundColor=none;strokeColor=none;strokeWidth=3;fillColor=#f5af58;fontFamily=Helvetica;fontSize=14;fontColor=#FFFFFF;align=center;spacing=5;arcSize=7;perimeterSpacing=2;" vertex="1" parent="1">
          <mxGeometry x="695" y="110.5" width="150" height="60" as="geometry" />
        </mxCell>
        <mxCell id="1766" value="" style="edgeStyle=none;rounded=0;jumpStyle=none;html=1;shadow=0;labelBackgroundColor=none;startArrow=none;startFill=0;endArrow=classic;endFill=1;jettySize=auto;orthogonalLoop=1;strokeColor=#F08705;strokeWidth=3;fontFamily=Helvetica;fontSize=14;fontColor=#FFFFFF;spacing=5;" edge="1" parent="1" source="1764" target="1765">
          <mxGeometry relative="1" as="geometry" />
        </mxCell>
        <mxCell id="1767" value="Instruments" style="rounded=1;whiteSpace=wrap;html=1;shadow=0;labelBackgroundColor=none;strokeColor=none;strokeWidth=3;fillColor=#f5af58;fontFamily=Helvetica;fontSize=14;fontColor=#FFFFFF;align=center;spacing=5;arcSize=7;perimeterSpacing=2;" vertex="1" parent="1">
          <mxGeometry x="495" y="50.5" width="150" height="60" as="geometry" />
        </mxCell>
        <mxCell id="1768" value="" style="edgeStyle=none;rounded=0;jumpStyle=none;html=1;shadow=0;labelBackgroundColor=none;startArrow=none;startFill=0;endArrow=classic;endFill=1;jettySize=auto;orthogonalLoop=1;strokeColor=#F08705;strokeWidth=3;fontFamily=Helvetica;fontSize=14;fontColor=#FFFFFF;spacing=5;" edge="1" parent="1" source="1764" target="1767">
          <mxGeometry relative="1" as="geometry" />
        </mxCell>
        <mxCell id="1769" value="Segmentation" style="rounded=1;whiteSpace=wrap;html=1;shadow=0;labelBackgroundColor=none;strokeColor=none;strokeWidth=3;fillColor=#f5af58;fontFamily=Helvetica;fontSize=14;fontColor=#FFFFFF;align=center;spacing=5;arcSize=7;perimeterSpacing=2;" vertex="1" parent="1">
          <mxGeometry x="295" y="110.5" width="150" height="60" as="geometry" />
        </mxCell>
        <mxCell id="1770" value="" style="edgeStyle=none;rounded=0;jumpStyle=none;html=1;shadow=0;labelBackgroundColor=none;startArrow=none;startFill=0;endArrow=classic;endFill=1;jettySize=auto;orthogonalLoop=1;strokeColor=#F08705;strokeWidth=3;fontFamily=Helvetica;fontSize=14;fontColor=#FFFFFF;spacing=5;" edge="1" parent="1" source="1764" target="1769">
          <mxGeometry relative="1" as="geometry" />
        </mxCell>
        <mxCell id="1771" value="Communication" style="rounded=1;whiteSpace=wrap;html=1;shadow=0;labelBackgroundColor=none;strokeColor=none;strokeWidth=3;fillColor=#12aab5;fontFamily=Helvetica;fontSize=14;fontColor=#FFFFFF;align=center;spacing=5;fontStyle=1;arcSize=7;perimeterSpacing=2;" vertex="1" parent="1">
          <mxGeometry x="795" y="385.4999999999999" width="150" height="60" as="geometry" />
        </mxCell>
        <mxCell id="1772" value="Events" style="rounded=1;whiteSpace=wrap;html=1;shadow=0;labelBackgroundColor=none;strokeColor=none;strokeWidth=3;fillColor=#61c6ce;fontFamily=Helvetica;fontSize=14;fontColor=#FFFFFF;align=center;spacing=5;fontStyle=0;arcSize=7;perimeterSpacing=2;" vertex="1" parent="1">
          <mxGeometry x="875" y="524.5" width="150" height="60" as="geometry" />
        </mxCell>
        <mxCell id="1773" value="" style="edgeStyle=none;rounded=1;jumpStyle=none;html=1;shadow=0;labelBackgroundColor=none;startArrow=none;startFill=0;jettySize=auto;orthogonalLoop=1;strokeColor=#12AAB5;strokeWidth=3;fontFamily=Helvetica;fontSize=14;fontColor=#FFFFFF;spacing=5;fontStyle=1;fillColor=#b0e3e6;" edge="1" parent="1" source="1771" target="1772">
          <mxGeometry relative="1" as="geometry" />
        </mxCell>
        <mxCell id="1774" value="Media" style="rounded=1;whiteSpace=wrap;html=1;shadow=0;labelBackgroundColor=none;strokeColor=none;strokeWidth=3;fillColor=#61c6ce;fontFamily=Helvetica;fontSize=14;fontColor=#FFFFFF;align=center;spacing=5;fontStyle=0;arcSize=7;perimeterSpacing=2;" vertex="1" parent="1">
          <mxGeometry x="1005" y="434.5" width="150" height="60" as="geometry" />
        </mxCell>
        <mxCell id="1775" value="" style="edgeStyle=none;rounded=1;jumpStyle=none;html=1;shadow=0;labelBackgroundColor=none;startArrow=none;startFill=0;jettySize=auto;orthogonalLoop=1;strokeColor=#12AAB5;strokeWidth=3;fontFamily=Helvetica;fontSize=14;fontColor=#FFFFFF;spacing=5;fontStyle=1;fillColor=#b0e3e6;" edge="1" parent="1" source="1771" target="1774">
          <mxGeometry relative="1" as="geometry" />
        </mxCell>
        <mxCell id="1776" value="Sponsoring" style="rounded=1;whiteSpace=wrap;html=1;shadow=0;labelBackgroundColor=none;strokeColor=none;strokeWidth=3;fillColor=#61c6ce;fontFamily=Helvetica;fontSize=14;fontColor=#FFFFFF;align=center;spacing=5;fontStyle=0;arcSize=7;perimeterSpacing=2;" vertex="1" parent="1">
          <mxGeometry x="1005" y="324.5" width="150" height="60" as="geometry" />
        </mxCell>
        <mxCell id="1777" value="" style="edgeStyle=none;rounded=1;jumpStyle=none;html=1;shadow=0;labelBackgroundColor=none;startArrow=none;startFill=0;jettySize=auto;orthogonalLoop=1;strokeColor=#12AAB5;strokeWidth=3;fontFamily=Helvetica;fontSize=14;fontColor=#FFFFFF;spacing=5;fontStyle=1;fillColor=#b0e3e6;" edge="1" parent="1" source="1771" target="1776">
          <mxGeometry relative="1" as="geometry" />
        </mxCell>
        <mxCell id="1778" value="PR" style="rounded=1;whiteSpace=wrap;html=1;shadow=0;labelBackgroundColor=none;strokeColor=none;strokeWidth=3;fillColor=#61c6ce;fontFamily=Helvetica;fontSize=14;fontColor=#FFFFFF;align=center;spacing=5;fontStyle=0;arcSize=7;perimeterSpacing=2;" vertex="1" parent="1">
          <mxGeometry x="875" y="244.5" width="150" height="60" as="geometry" />
        </mxCell>
        <mxCell id="1779" value="" style="edgeStyle=none;rounded=1;jumpStyle=none;html=1;shadow=0;labelBackgroundColor=none;startArrow=none;startFill=0;jettySize=auto;orthogonalLoop=1;strokeColor=#12AAB5;strokeWidth=3;fontFamily=Helvetica;fontSize=14;fontColor=#FFFFFF;spacing=5;fontStyle=1;fillColor=#b0e3e6;" edge="1" parent="1" source="1771" target="1778">
          <mxGeometry relative="1" as="geometry" />
        </mxCell>
      </root>
    </mxGraphModel>
  </diagram>
  <diagram id="VAgLAFvdRbt-YgQyC_KZ" name="Page-2">
    <mxGraphModel grid="1" page="1" gridSize="10" guides="1" tooltips="1" connect="1" arrows="1" fold="1" pageScale="1" pageWidth="827" pageHeight="1169" math="0" shadow="0">
      <root>
        <mxCell id="0" />
        <mxCell id="1" parent="0" />
        <mxCell id="zEESTD9j_5hzCUP6b-6b-1" value="" style="edgeStyle=none;rounded=0;jumpStyle=none;html=1;shadow=0;labelBackgroundColor=none;startArrow=none;startFill=0;endArrow=classic;endFill=1;jettySize=auto;orthogonalLoop=1;strokeColor=#2F5B7C;strokeWidth=3;fontFamily=Helvetica;fontSize=16;fontColor=#23445D;spacing=5;exitX=1;exitY=0;exitDx=0;exitDy=0;entryX=0;entryY=0.5;entryDx=0;entryDy=0;" edge="1" parent="1" source="zEESTD9j_5hzCUP6b-6b-19" target="zEESTD9j_5hzCUP6b-6b-15">
          <mxGeometry relative="1" as="geometry">
            <mxPoint x="948" y="366.16666666666674" as="targetPoint" />
          </mxGeometry>
        </mxCell>
        <mxCell id="zEESTD9j_5hzCUP6b-6b-2" value="" style="edgeStyle=none;rounded=0;jumpStyle=none;html=1;shadow=0;labelBackgroundColor=none;startArrow=none;startFill=0;endArrow=classic;endFill=1;jettySize=auto;orthogonalLoop=1;strokeColor=#2F5B7C;strokeWidth=3;fontFamily=Helvetica;fontSize=16;fontColor=#23445D;spacing=5;" edge="1" parent="1" source="zEESTD9j_5hzCUP6b-6b-3" target="zEESTD9j_5hzCUP6b-6b-7">
          <mxGeometry relative="1" as="geometry" />
        </mxCell>
        <mxCell id="zEESTD9j_5hzCUP6b-6b-18" style="edgeStyle=orthogonalEdgeStyle;rounded=0;orthogonalLoop=1;jettySize=auto;html=1;" edge="1" parent="1" source="zEESTD9j_5hzCUP6b-6b-3" target="zEESTD9j_5hzCUP6b-6b-14">
          <mxGeometry relative="1" as="geometry" />
        </mxCell>
        <mxCell id="zEESTD9j_5hzCUP6b-6b-3" value="SDLC" style="rounded=1;whiteSpace=wrap;html=1;shadow=0;labelBackgroundColor=none;strokeColor=none;strokeWidth=3;fillColor=#2F5B7C;fontFamily=Helvetica;fontSize=16;fontColor=#FFFFFF;align=center;fontStyle=1;spacing=5;arcSize=7;perimeterSpacing=2;" vertex="1" parent="1">
          <mxGeometry x="320" y="160" width="150" height="70" as="geometry" />
        </mxCell>
        <mxCell id="zEESTD9j_5hzCUP6b-6b-7" value="Waterfall" style="rounded=1;whiteSpace=wrap;html=1;shadow=0;labelBackgroundColor=none;strokeColor=none;strokeWidth=3;fillColor=#1699d3;fontFamily=Helvetica;fontSize=14;fontColor=#FFFFFF;align=center;spacing=5;fontStyle=1;arcSize=7;perimeterSpacing=2;" vertex="1" parent="1">
          <mxGeometry x="100" y="325.5" width="150" height="60" as="geometry" />
        </mxCell>
        <mxCell id="zEESTD9j_5hzCUP6b-6b-20" value="" style="rounded=0;orthogonalLoop=1;jettySize=auto;html=1;" edge="1" parent="1" source="zEESTD9j_5hzCUP6b-6b-14" target="zEESTD9j_5hzCUP6b-6b-19">
          <mxGeometry relative="1" as="geometry" />
        </mxCell>
        <mxCell id="zEESTD9j_5hzCUP6b-6b-14" value="Iterative / Agile" style="rounded=1;whiteSpace=wrap;html=1;shadow=0;labelBackgroundColor=none;strokeColor=none;strokeWidth=3;fillColor=#1699d3;fontFamily=Helvetica;fontSize=14;fontColor=#FFFFFF;align=center;spacing=5;fontStyle=1;arcSize=7;perimeterSpacing=2;" vertex="1" parent="1">
          <mxGeometry x="310" y="320" width="150" height="60" as="geometry" />
        </mxCell>
        <mxCell id="wrU18pPSzvcVHx3zE4DL-11" style="edgeStyle=orthogonalEdgeStyle;rounded=0;orthogonalLoop=1;jettySize=auto;html=1;" edge="1" parent="1" source="zEESTD9j_5hzCUP6b-6b-15" target="zEESTD9j_5hzCUP6b-6b-29">
          <mxGeometry relative="1" as="geometry" />
        </mxCell>
        <mxCell id="wrU18pPSzvcVHx3zE4DL-12" style="edgeStyle=orthogonalEdgeStyle;rounded=0;orthogonalLoop=1;jettySize=auto;html=1;" edge="1" parent="1" source="zEESTD9j_5hzCUP6b-6b-15" target="zEESTD9j_5hzCUP6b-6b-33">
          <mxGeometry relative="1" as="geometry" />
        </mxCell>
        <mxCell id="wrU18pPSzvcVHx3zE4DL-13" style="edgeStyle=orthogonalEdgeStyle;rounded=0;orthogonalLoop=1;jettySize=auto;html=1;" edge="1" parent="1" source="zEESTD9j_5hzCUP6b-6b-15" target="zEESTD9j_5hzCUP6b-6b-32">
          <mxGeometry relative="1" as="geometry" />
        </mxCell>
        <mxCell id="zEESTD9j_5hzCUP6b-6b-15" value="User Story" style="rounded=1;whiteSpace=wrap;html=1;shadow=0;labelBackgroundColor=none;strokeColor=none;strokeWidth=3;fillColor=#2F5B7C;fontFamily=Helvetica;fontSize=16;fontColor=#FFFFFF;align=center;fontStyle=1;spacing=5;arcSize=7;perimeterSpacing=2;" vertex="1" parent="1">
          <mxGeometry x="820" y="170" width="150" height="70" as="geometry" />
        </mxCell>
        <mxCell id="zEESTD9j_5hzCUP6b-6b-24" style="edgeStyle=orthogonalEdgeStyle;rounded=0;orthogonalLoop=1;jettySize=auto;html=1;" edge="1" parent="1" source="zEESTD9j_5hzCUP6b-6b-19" target="zEESTD9j_5hzCUP6b-6b-22">
          <mxGeometry relative="1" as="geometry" />
        </mxCell>
        <mxCell id="zEESTD9j_5hzCUP6b-6b-25" style="edgeStyle=orthogonalEdgeStyle;rounded=0;orthogonalLoop=1;jettySize=auto;html=1;" edge="1" parent="1" source="zEESTD9j_5hzCUP6b-6b-19" target="zEESTD9j_5hzCUP6b-6b-21">
          <mxGeometry relative="1" as="geometry" />
        </mxCell>
        <mxCell id="zEESTD9j_5hzCUP6b-6b-26" style="edgeStyle=orthogonalEdgeStyle;rounded=0;orthogonalLoop=1;jettySize=auto;html=1;" edge="1" parent="1" source="zEESTD9j_5hzCUP6b-6b-19" target="zEESTD9j_5hzCUP6b-6b-23">
          <mxGeometry relative="1" as="geometry" />
        </mxCell>
        <mxCell id="zEESTD9j_5hzCUP6b-6b-19" value="Scrum" style="whiteSpace=wrap;html=1;fontSize=14;fillColor=#1699d3;strokeColor=none;fontColor=#FFFFFF;rounded=1;shadow=0;labelBackgroundColor=none;strokeWidth=3;spacing=5;fontStyle=1;arcSize=7;" vertex="1" parent="1">
          <mxGeometry x="290" y="480" width="120" height="60" as="geometry" />
        </mxCell>
        <mxCell id="zEESTD9j_5hzCUP6b-6b-21" value="Artifacts (3)" style="rounded=1;whiteSpace=wrap;html=1;shadow=0;labelBackgroundColor=none;strokeColor=none;strokeWidth=3;fillColor=#12aab5;fontFamily=Helvetica;fontSize=14;fontColor=#FFFFFF;align=center;spacing=5;fontStyle=1;arcSize=7;perimeterSpacing=2;" vertex="1" parent="1">
          <mxGeometry x="90" y="590" width="150" height="60" as="geometry" />
        </mxCell>
        <mxCell id="zEESTD9j_5hzCUP6b-6b-22" value="Events (5)" style="rounded=1;whiteSpace=wrap;html=1;shadow=0;labelBackgroundColor=none;strokeColor=none;strokeWidth=3;fillColor=#12aab5;fontFamily=Helvetica;fontSize=14;fontColor=#FFFFFF;align=center;spacing=5;fontStyle=1;arcSize=7;perimeterSpacing=2;" vertex="1" parent="1">
          <mxGeometry x="270" y="630" width="150" height="60" as="geometry" />
        </mxCell>
        <mxCell id="zEESTD9j_5hzCUP6b-6b-23" value="Roles (3)" style="rounded=1;whiteSpace=wrap;html=1;shadow=0;labelBackgroundColor=none;strokeColor=none;strokeWidth=3;fillColor=#12aab5;fontFamily=Helvetica;fontSize=14;fontColor=#FFFFFF;align=center;spacing=5;fontStyle=1;arcSize=7;perimeterSpacing=2;" vertex="1" parent="1">
          <mxGeometry x="460" y="600" width="150" height="60" as="geometry" />
        </mxCell>
        <mxCell id="zEESTD9j_5hzCUP6b-6b-27" value="&lt;font style=&quot;font-size: 18px;&quot;&gt;sprint&lt;/font&gt;" style="text;html=1;strokeColor=none;fillColor=none;align=center;verticalAlign=middle;whiteSpace=wrap;rounded=0;" vertex="1" parent="1">
          <mxGeometry x="300" y="720" width="60" height="30" as="geometry" />
        </mxCell>
        <mxCell id="zEESTD9j_5hzCUP6b-6b-29" value="CCC" style="rounded=1;whiteSpace=wrap;html=1;shadow=0;labelBackgroundColor=none;strokeColor=none;strokeWidth=3;fillColor=#1699d3;fontFamily=Helvetica;fontSize=14;fontColor=#FFFFFF;align=center;spacing=5;fontStyle=1;arcSize=7;perimeterSpacing=2;" vertex="1" parent="1">
          <mxGeometry x="740" y="310" width="150" height="60" as="geometry" />
        </mxCell>
        <mxCell id="zEESTD9j_5hzCUP6b-6b-35" style="edgeStyle=orthogonalEdgeStyle;rounded=0;orthogonalLoop=1;jettySize=auto;html=1;" edge="1" parent="1" source="zEESTD9j_5hzCUP6b-6b-31" target="zEESTD9j_5hzCUP6b-6b-34">
          <mxGeometry relative="1" as="geometry" />
        </mxCell>
        <mxCell id="zEESTD9j_5hzCUP6b-6b-31" value="Backlog" style="rounded=1;whiteSpace=wrap;html=1;shadow=0;labelBackgroundColor=none;strokeColor=none;strokeWidth=3;fillColor=#2F5B7C;fontFamily=Helvetica;fontSize=16;fontColor=#FFFFFF;align=center;fontStyle=1;spacing=5;arcSize=7;perimeterSpacing=2;" vertex="1" parent="1">
          <mxGeometry x="1110" y="160" width="150" height="70" as="geometry" />
        </mxCell>
        <mxCell id="zEESTD9j_5hzCUP6b-6b-32" value="Structure of user story" style="rounded=1;whiteSpace=wrap;html=1;shadow=0;labelBackgroundColor=none;strokeColor=none;strokeWidth=3;fillColor=#1699d3;fontFamily=Helvetica;fontSize=14;fontColor=#FFFFFF;align=center;spacing=5;fontStyle=1;arcSize=7;perimeterSpacing=2;" vertex="1" parent="1">
          <mxGeometry x="830" y="450" width="150" height="60" as="geometry" />
        </mxCell>
        <mxCell id="zEESTD9j_5hzCUP6b-6b-33" value="INVEST (criteria for good stories)" style="rounded=1;whiteSpace=wrap;html=1;shadow=0;labelBackgroundColor=none;strokeColor=none;strokeWidth=3;fillColor=#1699d3;fontFamily=Helvetica;fontSize=14;fontColor=#FFFFFF;align=center;spacing=5;fontStyle=1;arcSize=7;perimeterSpacing=2;" vertex="1" parent="1">
          <mxGeometry x="940" y="360" width="150" height="60" as="geometry" />
        </mxCell>
        <mxCell id="zEESTD9j_5hzCUP6b-6b-34" value="DEEP (criteria for backlog tasks)" style="rounded=1;whiteSpace=wrap;html=1;shadow=0;labelBackgroundColor=none;strokeColor=none;strokeWidth=3;fillColor=#1699d3;fontFamily=Helvetica;fontSize=14;fontColor=#FFFFFF;align=center;spacing=5;fontStyle=1;arcSize=7;perimeterSpacing=2;" vertex="1" parent="1">
          <mxGeometry x="1290" y="360" width="150" height="60" as="geometry" />
        </mxCell>
        <mxCell id="FBsIJJKWT4e9fL6ykiY6-1" value="Definition of Done" style="rounded=1;whiteSpace=wrap;html=1;shadow=0;labelBackgroundColor=none;strokeColor=none;strokeWidth=3;fillColor=#F08705;fontFamily=Helvetica;fontSize=14;fontColor=#FFFFFF;align=center;spacing=5;fontStyle=1;arcSize=7;perimeterSpacing=2;" vertex="1" parent="1">
          <mxGeometry x="820" y="630" width="150" height="60" as="geometry" />
        </mxCell>
        <mxCell id="wrU18pPSzvcVHx3zE4DL-1" value="Acceptance criteria" style="rounded=1;whiteSpace=wrap;html=1;shadow=0;labelBackgroundColor=none;strokeColor=none;strokeWidth=3;fillColor=#e85642;fontFamily=Helvetica;fontSize=14;fontColor=#FFFFFF;align=center;spacing=5;fontStyle=1;arcSize=7;perimeterSpacing=2;" vertex="1" parent="1">
          <mxGeometry x="1050" y="630" width="150" height="60" as="geometry" />
        </mxCell>
        <mxCell id="wrU18pPSzvcVHx3zE4DL-2" value="&lt;font style=&quot;font-size: 18px;&quot;&gt;difference?&lt;/font&gt;" style="text;html=1;strokeColor=none;fillColor=none;align=center;verticalAlign=middle;whiteSpace=wrap;rounded=0;" vertex="1" parent="1">
          <mxGeometry x="990" y="720" width="60" height="30" as="geometry" />
        </mxCell>
        <mxCell id="wrU18pPSzvcVHx3zE4DL-7" style="edgeStyle=orthogonalEdgeStyle;rounded=0;orthogonalLoop=1;jettySize=auto;html=1;exitX=0.75;exitY=1;exitDx=0;exitDy=0;" edge="1" parent="1" source="wrU18pPSzvcVHx3zE4DL-3" target="wrU18pPSzvcVHx3zE4DL-4">
          <mxGeometry relative="1" as="geometry">
            <Array as="points">
              <mxPoint x="1590" y="242" />
            </Array>
          </mxGeometry>
        </mxCell>
        <mxCell id="wrU18pPSzvcVHx3zE4DL-8" style="edgeStyle=orthogonalEdgeStyle;rounded=0;orthogonalLoop=1;jettySize=auto;html=1;exitX=0.5;exitY=1;exitDx=0;exitDy=0;" edge="1" parent="1" source="wrU18pPSzvcVHx3zE4DL-3" target="wrU18pPSzvcVHx3zE4DL-5">
          <mxGeometry relative="1" as="geometry" />
        </mxCell>
        <mxCell id="wrU18pPSzvcVHx3zE4DL-3" value="Lean" style="rounded=1;whiteSpace=wrap;html=1;shadow=0;labelBackgroundColor=none;strokeColor=none;strokeWidth=3;fillColor=#2F5B7C;fontFamily=Helvetica;fontSize=16;fontColor=#FFFFFF;align=center;fontStyle=1;spacing=5;arcSize=7;perimeterSpacing=2;" vertex="1" parent="1">
          <mxGeometry x="1600" y="160" width="150" height="70" as="geometry" />
        </mxCell>
        <mxCell id="wrU18pPSzvcVHx3zE4DL-4" value="No waste" style="rounded=1;whiteSpace=wrap;html=1;shadow=0;labelBackgroundColor=none;strokeColor=none;strokeWidth=3;fillColor=#1699d3;fontFamily=Helvetica;fontSize=14;fontColor=#FFFFFF;align=center;spacing=5;fontStyle=1;arcSize=7;perimeterSpacing=2;" vertex="1" parent="1">
          <mxGeometry x="1510" y="340" width="150" height="60" as="geometry" />
        </mxCell>
        <mxCell id="wrU18pPSzvcVHx3zE4DL-5" value="Just in time" style="rounded=1;whiteSpace=wrap;html=1;shadow=0;labelBackgroundColor=none;strokeColor=none;strokeWidth=3;fillColor=#1699d3;fontFamily=Helvetica;fontSize=14;fontColor=#FFFFFF;align=center;spacing=5;fontStyle=1;arcSize=7;perimeterSpacing=2;" vertex="1" parent="1">
          <mxGeometry x="1710" y="340" width="150" height="60" as="geometry" />
        </mxCell>
        <mxCell id="wrU18pPSzvcVHx3zE4DL-6" value="&lt;font style=&quot;font-size: 18px;&quot;&gt;increase efficiency&lt;/font&gt;" style="text;html=1;strokeColor=none;fillColor=none;align=center;verticalAlign=middle;whiteSpace=wrap;rounded=0;" vertex="1" parent="1">
          <mxGeometry x="1654" y="440" width="60" height="30" as="geometry" />
        </mxCell>
        <mxCell id="wrU18pPSzvcVHx3zE4DL-9" value="Personas" style="rounded=1;whiteSpace=wrap;html=1;shadow=0;labelBackgroundColor=none;strokeColor=none;strokeWidth=3;fillColor=#2F5B7C;fontFamily=Helvetica;fontSize=16;fontColor=#FFFFFF;align=center;fontStyle=1;spacing=5;arcSize=7;perimeterSpacing=2;" vertex="1" parent="1">
          <mxGeometry x="1560" y="570" width="150" height="70" as="geometry" />
        </mxCell>
        <mxCell id="wrU18pPSzvcVHx3zE4DL-14" value="When story is said to be &quot;READY&quot;" style="rounded=1;whiteSpace=wrap;html=1;shadow=0;labelBackgroundColor=none;strokeColor=none;strokeWidth=3;fillColor=#1699d3;fontFamily=Helvetica;fontSize=14;fontColor=#FFFFFF;align=center;spacing=5;fontStyle=1;arcSize=7;perimeterSpacing=2;" vertex="1" parent="1">
          <mxGeometry x="1030" y="470" width="150" height="60" as="geometry" />
        </mxCell>
        <mxCell id="tV-pAsBK8vUECq-1HpjA-2" value="Help bridge the Developer-Customer communication gap&amp;nbsp;" style="text;html=1;align=center;verticalAlign=middle;resizable=0;points=[];autosize=1;strokeColor=none;fillColor=none;" vertex="1" parent="1">
          <mxGeometry x="730" y="140" width="330" height="30" as="geometry" />
        </mxCell>
        <mxCell id="tV-pAsBK8vUECq-1HpjA-3" value="Simplified language&amp;nbsp;" style="text;html=1;align=center;verticalAlign=middle;resizable=0;points=[];autosize=1;strokeColor=none;fillColor=none;rotation=90;" vertex="1" parent="1">
          <mxGeometry x="930" y="210" width="130" height="30" as="geometry" />
        </mxCell>
        <mxCell id="tV-pAsBK8vUECq-1HpjA-4" value="" style="shape=image;verticalLabelPosition=bottom;labelBackgroundColor=default;verticalAlign=top;aspect=fixed;imageAspect=0;image=data:image/png,iVBORw0KGgoAAAANSUhEUgAAApMAAAGwCAYAAAD1xu74AAAAAXNSR0IArs4c6QAAAARnQU1BAACxjwv8YQUAAAAJcEhZcwAADsMAAA7DAcdvqGQAAM1TSURBVHhe7f1nnB3HmaeJBrz3BEAYgjAkQMKRAEFvRYryplvdPWq12/trSd09d+fOzO7s/e3H6fly9+7szOydnZ0ZtZO6KbWolrolkqK3AD1IGMITHoT33gMF3HjePG9VVFZmnsw851SdqnofIOqck+EjIyP/GS77XPc4wzAMwzAMwyhB38qnYRiGYRiGYRTGxKRhGIZhGIZRGhOThmEYhmEYRmlMTBqGYRiGYRilMTFpGIZhGIZhlMbEpGEYhmEYhlEaE5OGYRiGYRhGaUxMGoZhGIZhGKUxMWkYhmEYhmGUxsSkYRiGYRiGURoTk4ZhGIZhGEZpTEwahmEYhmEYpTExaRiGYRiGYZTGxKRhGIZhGIZRGhOThmEYhmEYRmlMTBqGYRiGYRilMTFpGIZhGIZhlMbEpGEYhmEYhlEaE5OGYRiGYRhGaUxMGoZhGIZhGKUxMWkYhmEYhmGUxsSkYRiGYRiGURoTk4ZhGIZhGEZpTEwahmEYhmEYpTExaRiGYRiGYZTGxKRhGIZhGIZRGhOThmEYhmEYRmlMTBqGYRiGYRilMTFpGIZhGIZhlMbEpGEYhmEYhlEaE5OGYRiGYRhGaUxMGoZhGIZhGKUxMWkYhmEYhmGUxsSkYRiGYRiGURoTk4ZhGIZhGEZpTEwahmEYhmEYpTExaRiGYRiGYZTGxKRhGIZhGIZRGhOThmEYhmEYRmlMTBqGYRiGYRilMTFpGIZhGIZhlMbEpGEYhmEYhlGaPtc9le+pXLt2rfLNMLqePn36iDEMwzAMo+vJJSavXr3qrly54lpaWhzO9UYeei16c0+Kti0MDT8Ssa3xifHxc6ziJiLZPcTjSbPLSn/eMCDJLivsNNLCzUpzll1IGXcQus2yK8r165HfPn2iMAlbw1M74FC/fn3dwIED/We/ylHDMAzDMLqSXGISIZklJssKiTDq9mEw+o5dx6TpkfYx6q+O7iErnXnzUI8wipIWLsdrTUdet1nuisSXjfqPwmufvz7+d/Stb98+YhCT/fv3jw4ahmEYhtGl5BaTly9fluFuTO3ioRrtxUWIdlRVOrEqtHcfpi+evSy7vBBGWb/1RPNSa1rC/DQib9XLvP35aw92kT3BhD2TYbiGYRiGYXQNuRfgJN24s27m2FW72Vdzk2THEYa429tFv/UYgkWNHk+zKwN+qxHGqZSNT8OKh6n5iJPmPiS0C8PIm7c4afGApjNP2IZhGIZhdC9yicksoVCNVL9Vw0yz73i8huTVDPmL5zH8rd9Ty6EKZf1l0YgwDcMwDMPondS8NRDCJK84YYhajUvoreJb23qL5J4sfzT6G/rzXyOT4N4fUxMn6ZiSlKf4sfB3VhnE3WW5TSMrH3FCt0nus+y6C2XK0DAMwzCM+lOXfSbrJkpy6oMEeVQxjSePiKmnSOvuos8wDMMwjJ5NTWIyS+h0OO41mPbKiSAr0LHU5iefp3bxxEiyS3KXB81/UjnE7dQo8TSUoUgY1dzVIz2GYRiGYfQ+6tIzmUY7AcUH3+WzYmIgZbykqXzriNq3t+3oPkm8KVl2IVl+m4W86VGRWC+xmFY25SiWpmYqf8MwDMMwGiwmO4AO8GIgTT50FIoJ4KDSixaZ6HBXUKs4yysEa4kn7rfWNFdD01stnjZ38kuOJdPY9BqGYRiGURuFxWQ1kaBkuSvau5TlPrJqb69CJYk0u6LH06jmlryoyUOa26y0hnZhfHnCSgo3jXhckBVPSJs7wuFIx3ij8Cs/DMMwDMNoSnKLyVA4JImIelBNgMSJ3Kf7qWcaG5Hf7kxYHnUpm1gQdQ/fMAzDMIyG0LnD3DloE5SRYFVThLZer45CM+14ZxPmLcso4XdIy1se4uFrmahJI56GkHiYecF50bNRLZ2GYRiGYXQepcRknpt5+Zs9YgS/Hf3LkWSr0hQVPyGdLWhKpRUvmd7UQdx0JMxvVt6LpDMKxf/NLEvs2tvXct4MwzAMw6gfucVkXuGUdZPHTk2cNju+R4Y4Q+P/tJkAdZ+XrHTECfOdx1/oPg/t8leAPGmJdKH8SXTfFmfkJjRJ7uNkpbma31YIQ8JJC0vt2tzkCtcwDMMwjE6h7sPcWQKjiGAq6raM+9AoKoJCwZLkrhbCsNPiiceX9js8Bu2O8SHf29yGJiKyT6PNXTJp9u3jyI+WvfpXE5aTYRiGYRjNQyExmSUOVARUIysMJXSTN9w06pkuyOsuJIy/lryUguRWTXLcUfS9bJlk+cs6H51eNoZhGIZh1EzDF+DkFQ5JAiR0w/fwdx6hkxZ3GoQZmjSy7LLSDPE4NKyktKr/JLu8xP0mhRcd41tbvjRdIeo3yShJ/kI0z9X8hvaYauE2Ak2rYRiGYRjpFBaTRW+uWe5DIdGTKJqv5iqH8uKpHsIrPYyuKaOeWkcNwzAMo17UvWeSm6+aNPKKDtypUYrc3NPiiaevWphx93ko6r6ziJcntB1rM5rn0Ki7NFMvksOkPKMyrXd8aZBnwzAMwzCyafgwdxq1CIIiN/mseFQk6fc0iqQ1zW0ZYaJh5Y27O9GWN35RNvnLJzxvhmEYhmF0LV0mJuM0gziolgYVMaFJI0kApvnLIxbj/tLCSjrmj1Y+k0kLqyjlwigqlKv3kOYx165dazXhcQi/G4ZhGIaRTR9/06x617x69aq7fPmya2lpkZtvkmDQY2nBpdknhZWVpLj70C12ObKTSDx9aWHlTW+Su5CsdNaSj/ZE4i4KKzs+RePVY3nSUS2v1SGNfF6LfiWEd/16eMyLPf83KdYoHE0z+a98bUdkH+a1X79+bsCAAW7gwIFyzDAMwzCMfBQWk2nOs8RHKA7i9snCIT1JWe6xC79DVlghcfdhWHHiaRBXoVtv3zGV7clKV1bcxVAxyfdIqEE8/DA/efIfEvotj4+Lj+vZYpL08DBz6dIlqZNJROG05SGZtnwhS/v26euFZH83dOhQN3z48IqNYRiGYRh56BQxmUT8Rp/lD7dx+2rHwvCrpSnJbTz8eNh8i/rH2pBQgrDa4Z3ivk97Lx3igaRj5SAtmh4NLzlc4oS0/FcjLR+QFk6bfeWzz7UO5QORu75S/65cueJOnznjLl68iMeU3FSnErUXp9ddv3593eDBg9yokSPd2LFjW9OlkP74McMwDMMwIgrNmcy6oXLDLSI+OpO8QiAr/R3tOrrNyn2S7OlcgaJxVYkT6zomq1id8II0Ie4wCL4iKnnAueINn+UMYUTh8NnSEs2dNAzDMAyjGA3ZGkjhexnBlMdfeONX92XFAP7ifrPCUrsyeVPy+tW81YM+ffq2hpcaZuU4eQzdprqvkFReWWUYDw+XHOLodf5kxNm3b99006+fzH/EJNpXDGG3/60mqkdh2qvl3TAMwzB6M3UXk+FNOH5TDlG7JDfxY3H7OFlhJNnF6WgraiYwCeDJh9vqyv8Wl3K8o/HSKLKvkJW28Fiam3xUIvemj4wfp4cj8WBPXAnOyqchGc1XFC7lWImbUhI1ydEwTnWXDqKvvX2W645obBKOCUjDMAzDyEUhMRkXFOENtxluwKXjx1sl/ZFpPRiYBHxxeNfyr+03n/6LN6HvyIhtbqrlpy29We44Z3rewu9ttPpPtu5w3tOonpY0KhFXPiinytcK7X8lxZAUb56klEuvYRiGYRhK4Z7JUFjkERnlBUZHssLiuKZH3WW5b8VbV3WTAv6Is1o55CmnPMTzo3HHw4+7gzS39SJvWSiaxng68xCPISuMMJ4ycRmGYRiGkU3dh7lDwpt3rTfyrLDqEU9tqUtHxVWtIq5MvrL8dEV6ipA39KLpaHS6DcMwDKO3UVhMVrsZY6+mDKH/0MTJe6xW0VSUML543HnTovlIcp8njGpu8oSRVJYKdnnDSDNZRPbeXRVJmRUO6VNjGIZhGEbjKCQmq4mALLripl4kztBlXm+dmaeiwiivez2naec2KYy86SiS3g6QnPLVrR1hOmpKk2EYhmEYHSg1zI3wUBOHm3WSyUsRt1kUD6d4WiEsi6TyaGbi6Y3/rse50DKNm3rQLszKsTTqGa9hGIZhGG0UEpN6M+6sm3I8njRBkHSskQKvEWHmIW9+asl3LX5DqoWTVYfETo0Pokx66pEHwzAMwzCqU7hnUkVAlhioB/F4wviS4m50evLQyDTkFUehu64SVHnTkFVe2ES25fPQVfk3DMMwjN5ETQtwksQA9mrihHZJ9koeUZbkhmNJJh/ZaYqjeUiLp0hYXUWY9tCkkZQnLYeQeDhZZYG7PGWVx00SZf0ZhmEYhpGPTluAk0Sz3eizhFQRGpGvvGkL3dUrP40mO5358pBV4iYoDcMwDKNxlFqAo3TWTTpLbORNA+7ipj2NE14d4ypXdpRDHoGY5i453+1JSysmK27s4uFrOkJ/cTdV8V7jYcTJE57GWyhuwzAMwzCqUpOYTLrB642/ml2amyIUEQZJ8UX+i4mLMM4i6U9Ka1r6ay2XehCmIanskqjmrsj5wmVe1/E4NR2hMQzDMAyjMeQWk0WEQL2oFqeXCZVv+YkLiyK5CtPTIRzsKtZpqaqWH+yruQF1l2TiZNmlUW/xlRR/VrqiY94k2EHSUU1xWto7HE8J2zAMwzCMYtTUMxnCzRqTJA7ipImIOHEBkOQPQXndHwpdVgtf09pKLJ4otLjxfyv+xC/B+zgkbok/csOx6Jf/J24q9uKmDQ0nTGdr2ElIWO3zpe5Do8g34sxwk0Q1+zgaZp7yTjNxomM+TP+RdC6zUhh3m5QuCbPy3TAMwzCM2qibmAzRG7jctBNu5kqaXZafdnhVUURYJCHCBdHCv3buCVlNCoFzcYV//z/01c437sMoipC3TJRKOmqB8sh9LupNSuLz5KnL0mwYhmEYvZCGiEnghp7W81SNND9J4UnvFabyW4m7TRIYafGEqKCK+8cn/pPsw2MYTYvElxGlus+iXVgx4n75lRWexhcaJfweJ+4uyy2omzR3aXZZec1LLX4NwzAMw6hObjFZ6029GUgTM2mE7uN5R8AK4WG+q1HSvhdF4q8egKZZU57mI0281Zs8ZV6XutWAtBuGYRiGUZ3CPZOdKSirCRHsi4qivGGG7uLhqZ32iGrvqODdhsfi3/OQlAZRhZgciN/KvySR1S7cCvE81uM8J8Wj+QpNvQjTHIar8WBfj3wZhmEYhtFGYTGZdPPXm3Vol3bTzuNGVJc3/tYf/U6hXuIgKU9ZhHFqGuRY5Xjr7wrxskkjDCseRh6S3CfFG48jyR+k2YXH1E2Su1rRcstTdsmU9WcYhmEYRl4Kicmkm3qaWEkidJstPrw77xYXZSRKefHRWOqdLsJr1rzWSg/NlmEYhmH0OBq2AKcR1CKeknrQksJLcleWPOHUEo+Gr/nA6LHQdBXNkAbDMAzDMBpLITGZJAqSjsUFWnF8mJVwNaQwzDzh156G5LwZ5Shallb0hmEYhtE9qMsCHI6pUdLEXNxdIlh707qopQrElRRfXkGZlH6lalpjJMWZFX5ZNM9hfHnDD/3Gw8giyX1evxBPX7UyUfssN4ZhGIZhdC11WYDTGZQRFF0hQjo7TmJTkxcVaKGphbKCsvF1KYorzGNX1V/DMAzD6KnUvACnVggzb7hxIZLlt6hACsNLC1OpZl8recPX1zVmLVoukqc87upBkfOYm1gYSee/M/JmGIZhGL2N3GKy6I046WaeJfDyhk8Yrab1nz8eWadC+GoUDScr7rgfwE8ZsuIpiuQ6loyk8FvLKiHNmjdMlrs4edwUpVr6ylKLX8MwDMMwqlN4mDsPtYqNIgJCYuoEvVBGlGT5Ce2K5LcVyXj9RV01ks5trec7WUhWvuSlxjQYhmEYhlGOQmKSm3414aD2KpCqiSQNMyncPAKrr1eS8YU6SWGFx+LpykpDaKf+8qQL4uGFv+N2UCRsgSCu+T+YSho7QnicZjVV8k38NeQxL4lxVyBuDme5gXgaQ3dql+Q3DDfJ3jAMwzCM/OQWk2Vvug29WYdB54gnT1q6QmA0Lj4EVSi4ao+nkNjtcjqKzc4+t4ZhGIbR0ynUM1mUWm/cefx3hkBAQIUiKoxP7UL7+G8ldBt3o/lIy0+W32JUKSviTog/JCnuaukJ0x03ZUkqJ8MwDMMwOpeGismyQiFNUNWTeoUfhlOLMCpD/vhIo5raSSu7rPTE/fBbTSOIgm1M2IZhGIZhtNFQMQmdLbCgWpxFBEye9Gt48c9q1ENIFROUtVMtzaRHTZx65Dc/bXGlpccwDMMwjNppuJist4DIEgV5REOe9Gg48bDwm+Y/fjzJnfpXU40wHXG/oQndtYc41BSDcOMkHVPC9KhJIstOqWafRTz8jmViGIZhGEY9aeo5k2k0UiD0PPHRmHNgGIZhGIYBDe+ZLEpyD1s2SX7KhqM9W0lGwywabl7i4cfjTiN010yE+VETJ++xPJT1ZxiGYRhGeZpOTCr1EBlFxVWzibGQzksbZdwYUZYnD7XowXj4YX1p5nNrGIZhGN2ZphOTaTf9uJDktxoFv6GBuJsk8tjX4ibLr/oL3aSVQeMhDZHJm2Y11UjLE8fbh1M9rDyEaeq68jQMwzCMnk9TDnMXAaGgpixZfpPSU6s4aRNO7dOvJg9hGPUhDCs7HUnpTCunJLdxQndJ7uubT8MwDMMw6klTiclQNMQFRRJ53GRRb0GWJz31Fkb1Da9YWLWWfx7qXV6GYRiGYdSXppwz2RlCMi/EoyaLLPvQLm94oGJXTUhSOInCi2OZegxLNW3kSR/E409KqxLah6az6My4DMMwDKO3UKOYVBGSLh6KUEbAVAO3RdynptkfJhQJqVi26kbniKFKWWlc1aKUcuFfq89Eyqa9yLmrBmGZoDQMwzCM+lJYTLbdjPmMDMfUxMmyS0Jv+Gnus8RFnjg07NBteCwevrhrNRyQg9FnAmFYSvg9jSR/SXmNh1vVfeUT4u4j8EOZR0Z+872vd4ep+In7az0mx3254c/HTxoSy7CC2oemPUE6KnR0k4ymCZMWPr9DdxjDMHoHSW1CPUgNt/5RGUZTUkhMJt14o2PR8XpdpGUv+Gp+wvRrHHETxx/VL60myZ0S2hURK2lpyIorD+K/liAq3pPSJUfCwylZFbcVU4285VWd5HDqF75hGN0Nu/4NozHUYc6kSA0vFKJfXYmKFRVxYcMRfs8jalrxTvGpppWS+Q3TpqYahdJbgHgaVPBpdHQQik1a/P64louEw78c+UmjFr8QllMUVBSe5rHW8A3D6F5omxZCO9DuGF9Tmria8U1OUhryUNafYXQFNYhJvQJD03bjVvSC6IyLIkkw6O+y6Qj9iV9vZBTWkxQftHMfI+14iIabFHYtxOPW3+FxiZdP/5MjofskxK//zOs+i9BvvfNuGEbvgvYkrR1td0wavOhrWTSepPYvLQ3VKOvPMLqCGnsm24uTOLUIizzEL7aiF17kPu4nfiwtzLbjWfEml0HcfVZ86WHXi9TzlHr6YmlSd3U432Faip7PjkRhNboeGoZhKEXaG9xa+2T0BOowzF38Zl27SEhGL8wwPWlpIw1tdhRDZNoEJr9VrOrv0LQnK0/t0xCFd/16m2kffvLveL5qgbSq0d/tSUpXm4nch8dC9/mIpyFOmfyGYcX9anhFwzQMo3uS1raESJvAZ/SzEEltjLZp2tbE3cRR91lUC8MwmgGUQKdTr4sj62LNssu+eEM7vqvpPCJhFtK58VentvTEy79aY5qLeoRhGEa35tq1a+7q1avuypUrqaalpaXiuo2yrYfeZ1p8nFcr4RN/eO8hTS1XW9yVy5Edv9PuTYqE6dOpac7rzzC6iprFZJ4nq6KUDTPLT5KdxhOaIhcrbkMDSWEq0fc8+WofZkjSMSUeV5rRsMOwOA7x40nE/alJI3ST5i60rxa/YRi9D22bwvYh/M0nguvy5cvu4sWLiebSpUsizBRpcyrflTD8kDAu0LaMY1euXHWXLl5yFy9clPgRgur2GqLQH7vk47/s48cuLgzjYUdhXmnNC59xkWoYzUQfXzmr1k4qMZWZCwATEl5QoL+hbMWPhwlJx+LgJk+c7cNqS28xkuMJ8w/xPORIXgodPcbLJMx/VjryUb1cwjjawm8fTzwdStH0EE5Li79R+Eb79OnT7sKFC4lhJKepjaRy6du3rxs8eLAbPXqUu2Hc2IqNYRjNil7bej3z++zZs27fvn3uow+Xu8OHD0eCLngw79Onrxs4cIAbMWKEv9bHuFmzZrqbbprmRvnrftCgQa3hJLVZacdph06dOuU+eP999+mmT+X+ePP06W7J3UvcjTfe6IYNG+a2b9vutm7Z4jZt2iTH7ly8yE2ZMsWNGzeuEkpHTp486dauXeu2bd3qdu3a5W655VY3d+7tbubMWW6stVFGE9Lvzz2V76lwgXAjv3aNC7j9DTp+gSVdcEVJCiNPuElpKRtWWcKwaYBCIruOAqcs8XyEv7PSUQ/icZMvjsVNvSAs8tHi62K8dyGkfZzR92rp4Xj//v1FUA4dOqRy1DCMZkevadoGRN3mzZvdP/78527pW2+51atXiyBbv269W7d2nduwfr3buGGjiLvPvEDD75Ahg0Vccu1DWhsBSXbnzp0T4frsM8+65557zq1Zs8ZdvnzJTfeCcuTIkW6wF6mkYdmyZe5Xv/qVO3nqpJsydaoXs6PdmDFjKqF05MiRI+7tZW+7V155VcJmGB0/iNHRY0ZXXBlG81BgmLvtos1D0QUZIcRRDwEUhkNDEDf0SPHp/3RIatxtNeLuktLPsSJhxqnmL4xT856UDiUpLVnuvcM2U4AwLWqUrPyE6YunMQzDMIzeRbxNANoEhpQZFj5//rz0VHJs6NChbtSoUfLJg+j+/ftF4L3yyivuhedfcDt27hT3WW1KPC6F4/38g+iIkSPcDTfc4MaPHy9xDRg40PXt11e6DnjwJV6E58WL0TC3xpUW53X/0HzlSjTETdrwj6C8fr39yKBhNAs5xaReSPlu4BnXZJcgF3y/fq3ikQtYjT8gF32fVmFZ8RQjrTFJIq2BiFMkzNBtEX+Ae/JOGWD4jcmbToEoA5PkMym8rDiK5qM4UdyF8mkYRrflmr/WdeEKU7Po/Ztz2xx39z13u3vuucfddttt0hN57Ngx9+mnn7pVq1e73bt3S6+mTuGivQiNor91uhffEZLDhg9zc+bMcQ88+KB70Jv5CxbIUPTgQVFvJwIQkYuobGnpOO9Rf0cjgDqfMvqt/q4hJCtxGkYzUmoBTuNFQH7CtIQXmn5HRDGEOWDAgFYhxUUaXdgtoo1a7byo9A4cnar4V6PkyXfoPg7+s8Lke5qJk3QsDcqAPGIoC/IKmhZMVlxSHpXvrXAscKr+wjAxcZLiif9W0sJKcx8ei8edFI5hGN2PtGtY2gX+yWfEzFmz3Be+8EX3B3/4h+673/+e+/3f/30RldpLefTIEbdv7z4ZVlaBqKJOexA1Pj71OAZ3zLWkR/LxJ55wf/zdP3bf+/733Ve/+lU3Y/p06a0E0tO3bz/X399f+mmnRQVJqzcatvRA+k8fm3frH/7pBMBNxV9bzgyjucgpJrmYMG0VP402O/XTOPSi1M8QufC84UmVycw8hS5fvty9/tpr7sUXX3TPP/+8e+GFF9wbb77hPvzgQ7d3z15ZaUf6+wbhEQZiDCPXcbu45EAlfj1e+a4/A6KiiezbF2HSsdrQdPfr1z9qNI8edQcOHHCHDh1y5y+cl7mHvoXCpRjiTou/3WsVcRMYPooQrzttQYXH2xdeVL71h7Rk1WXDMLo3w4YNdTeMv8HdOGmSzFWcetNUN7oyV1Gv/759o5ErOHjwoFu5cqV79dVX3euvv+527trlzpw94+8j19ynmza5l1540T377LPurbfecjt27JB7C1v+fLbrM5mjuWrVSrdlyxZ//JRvdy8TiYQbNWlRW6sGG9ph2uZVK1e5l1962f3sp0+7X/7TP0n4e/bskWHuvj5t4T3JMJqRAj2T9F5VvlYlkgdpVBMH2KuJk2bXeqxyOBJ/fVzL1WteRB1yH330kXvpxZfcz57+mfvJ3z3l/u5v/8499dRT7hc//4V70YvKLZs3u/PnzjNO4i/cqFg0zDYxSeC+AZI4+IM9bjEIsuhYZOV/60/xB1omkQXuMYQRhcNv76rSyIVCJzwWtwvRNEeGdPdzZ86claGcbdu2SeN4+swZ6ZnVONtMG2E4AtGJkQS2M/H0tPPniYelbuUTv/JP0bREbsNwvGNxLyYgrSygvf82svyUhTBrDTcrjHqED40Ovx6EacmTrjxuQoq6j1OL3+5OWtl1VplwTaeloZXKZU8b1zq1x4vG/gMGSFtO7x+fAwcOdMOHD3dDhgwRN7STS5cudU97UfeLf/i5+/TTTe6EF4x0SqxcscL9+Km/c3/zV3/t/skLvo0bN7pDBw+5M6fPunffecf95Kkfy33llZdfcbt37fbHzwRN5nUJI0pxJXH+99WWqzKH860333Q//clP3P/1n/+z+4sf/IUXlL90W7dudWfPnZPeSbn/1Aktu3gZht8Noyg119CwQsoFm3Lzrob6xSRVao0nNCH+iPzjQqXRwJz1IoonxVdffcU998yz7v333xNBder0aXniO3HshNv86Wa39K2l7qPly2VrByY7MxRMo6NPq8ynOXrsqOwTFq1o90g229LSLj189b+1JNrs2somnv4QscFpUJZh+ajpEG8F7Ej7GS8aN2xY7xu3l91Tf/d30kDSM0sv7MVLF72bqJwqCRa/6anKhjiVtHSl5Vmyyt8gDKW9nyjfcXdaHgp+9Lf6Vzehu3pTj/CzwlC7tHIMyXKTFL6WWZpdZxPmNS1dSh43cYq6N9qIlx3lr+cgXlfivyHpWFGSzl8UbhS2txURtn/fXhl5ev3V19zzz/7aPfOrX7l169ZJGz979mx3/wMPyCdD1bSZ7BN54thxd8ALPEZyWDTDgzfzFelt3Lt3r/QYHjp4UOx0/8djR4+5zz77TEw0+nPOC1b/wC5pCfDJ0/zjd59vi1kM9O6777rtO3bI0DmrtsfdME7mfV68cEHcQlvuaiOp7CDpmFKPc2b0bAqJSa1QeStiWqXNQ5HKK26j/z7SKF5E3+nTp9yaNZ+4D7yIXP7hh273Z7vlwmd/r8mTJstE7DOnvODyjQtbR7AXGGKSMFqutbjTZ07LUyPDFmwnce7sOWlUGHIgW1HW2sqkzUSH/Te1Fscc1/LQT0X94kg/Q+9F4KmbvRh37drpli//ULbJoDF9e9kyt2b1JzKswtCMiG4fT2tR9/E3BflXf7LPZ/uyiBP6jZcbhMeK1JsyEH6j48hDM6QhD40ur+5SDj2dWq/BetcT0oOYPHjgoFu1cqW0ga+9+qp784033U4v2tgK6JZbbnGLFi2SvSbZxofeP1ZQIxJPnDghQ9hMEWIRzHV/Pzl//pw77oUmi3dOMYx98aLcT67JveKMtKsYOh8QijL3kXJJad5wI/eXzVtE4OJ32PDhbtr0m92MmTOlt5QSkbLhU3wZRnNSuGeyHhd9kn8NF0NDkCQaqtHqzxt63g4fOeI2bdwkIhIRyKToxx9/3P3hH/2R+973v+d+4zd/082fP0+u9cP+aZItIs6dPSvbN9CYMHfm5z//uXv66adlDg0XO+lj6NjHJHFG822ioZT+/SODPQ1Taz4lTT6PfFTcY6/p5bsamXDN94odzci1SjMSdyt5raBhAVtifPzxx+7FF16U+Tdr16yRntiocfNpxl3FKzFE3nwc/r+GEZ6PPKi7ME1KtTDIo/xLCSPMW1JYHFMTd5fkL27Xij8cdxf+hjAt9SYeVxK4aUQaCC8pv5Bkl+Quiay05gkjK12g4ecJK2+a85CWJyUrzd2ZpDyFZaHnQwm/a5kklV3cX61lR1i0kcePH5e9J1esWCHtOcPYCMSxY8fKHMqbpt3khgwb6tvl6FYYTQ3q6/rTnnvDlCefMrGTRTSMWnHcm2hRDDbXpU0XO7XHXyU/+G/Nm//Q7whRFv4cPnJYNj9nS6F58+a5Rx991D3h71OsPB87ZoyUhSwOooGqI6QDk1TW8WOt6ffE7Wo9V0bPoH4TMQLCitdpEKWv03rhspiG3rkj/kI97Z8UgR7JW269xc1fMN/d6Z9I77rrLrdg4UI3yz+h0rgM8A0Bl8V5/2S6f98+L8LWumVLl7nVq1bL0yzDxjQA/uqROGh04OrVK74xiPY1O3furH/i9E+z9GDS2ODGp00bBNwyfKFbRFBUHEPs8aSKHa/mYpP41ovUf7b5b3vvLL9DtGHgyZq3LTDEzVANYQ8aOFBEqmSQcqoEHTVule8V4r8bjqYp+tUB8tRaFh7ccZ6zCN0rEk7lu9bRtrpaSUQAdm32PZ+svPamcqgHva3u5KGzykSuZH+tM0eRN9Cw0ffN9PbNmOEmT54sxxCUBw7sl0U0dBKEb9QihbTd0n7LEU07D+KVh3l+V+wA+1Y/TB0KLSvE8077zT3jLPcV354PHTLETZgwwU2VhUI3ubH+fkXvJO6itCUEahhNQkPEJIQXTnQhJpt6IGFxofkLjhARSgzjMt+ERuNqS4uIusFDh7qR/ulv0ODBMul66rRpsifYQw8/7BbeeYcMLzD8gQjduWOn27hhg1u7do07cviwF6fRu1V5x6pO3uYplAudhujoUf+EefiQzJehgWh1wxOsTw89owhBej1xf+kSPYVXvJs+IvaIE7GKEESYEs91LyhV3xAPYhO/GO1pDEUT5YA7hup5BRdPvWNGj5GNdNlvDUFJGamoilYIBk+m/mfRc6LnUf2F6VGqhRmlos1dUhhZhGlQv6lh+d9qF0KJXPcnKskuhPCKpg/y+KsWN+RNX56wkgj9xdOMXd7w436TiIeR5F7jSotP48lKT143irqvRtxdHj/dnawyrIV4WVaLJ+4e1A/HW7yh3Z/uBeQXvvAF9/t/8AdiGJmaOHGiPGSz0OaZZ5+RnT4Y0qbt9L47hKvIAzh2CdZpqZV0tvPQ5lLadH9fuVJZ9c39ZPCQwY4dOHDHaBf3EIkWD3jNLpZCaBmGZZ10TEmz47faGb2XwmIyqZKBVqZ4hQqPJ9lnVdq42yzUrfclnwMHDHTDhg4Tw15gHKUBWb9undu+bZsMfwwfPkx6Kb/xzW+6J32Ds/COhbI4h55I5tbs2L7D9fNPosyZYUL2879+3r3++hsyCZu5LvRWsn3Ez372M/eTn/zE/fjHPxbz05/+1D337LM+nFUyfE4jgVhkuOX5X//a/cS7efaZZ9yrr7wic3l+7Y+xOvCNN16X7SF+/NRTPv433J7de6SHlUaHd86+9+577kc//KEMvb/55puyjQVQhuEFTX6ZD4RI/s1vfcstWrzYjRg5UjbYZYsLSgmi1eR84xxUTGRVd9LqTZyczjxtjZrmW+tASN5jkCdqLeuilPVXlLBMaiWeZg0zTz7ifvNQ1L1SzV+1tGi++Kwlj3n8GG1Q1jxA8zpC2mbaZJmKUxN6TqJzOWr0aOmVZFPxxXfd5Z74/OelzWcV99mz59yBfQd8O7tbOgyiuL3fduex7Ts1wzeZmU2k1J/AQeQ7DC/uu/K7Upeif/wOfFXqZD0hnYxu0fFBzyyfEK/TSrXrQo+rO6P3UUhMplWkOFqh0ipW/LhWYDVFaY3Pe+UrvwcPHuRGeQHFUAG9kIS7z4vAlStWujWfrHGffbZLhham3Xyzb2CecI88+oibO2+ev6jOuPUb1rsPP/hABCTDDPTg0eAxb/Ltd952+w7sl3e78s7Xl1580f3DP/yD+8d//Ef3y1/+UkThz/1vtnZA/LG6j+bh1KlATHqxiD3ilG0kfv3cc+65556RJ+XXXnvVi8kfu9dfe93t2rlTelevtVwTYfnO2297Mfkj94+/+Ef//R1JE4RlRt5J88KFC93nP/+k+43f/Ja7485FbsjQaF5QyzXfyLa65U/lU1KpBcjv+pPn3EZpyYEPS+tLaJQkOzVxOKRzVGuBso/X7TTS3BUJI41q+SgTvvrJCjsr7dXs0gjji4fB93h6ssKCpDAgDKdaHo2ItLKE0E6/q0G0MWLEKAwPxIyi8IDOPPX4aEsZOHsyGuTDYZ/J8RMmyPD2rbNvdfc/cL/MRWSom06CUydPuoP79rtjXlARN6e+XV2oLFKMfkQfrZ8paOrFXxBWcr4ie3WFi9pynw/SwjmgR1ZXoDPipdOnktKadV1ANXujZ1NqmDtPpanWIGCvplaiizb6Lq+u8hfDwIGDZHj3jjsW+kZktgxfMxcSgfbqyy+7p//+p7I4BdF4kK0czl+QOZPjxo5z026aJttFMMeSBoehhjH+CffOO+5wc2bPkbcnIAxffuklEZQMVdx+++3u3nvvlddpDR06TBrIt734W/HxCnf8xHHpYZSh7srT4EEvVFk9zqRwei1HjhwlW0KQTgTkCf+UHqXrvAxv8+TMBU+Dy9D5DTdEIpm32uj5oCwZGmGVOum/9dZbox5Jf+zq1aiRbj1zlWLHb+i/KHoO1W8YnhJ3o8Tdxu3j4FYnwQ+svNGHHgaMvt2Hc6VTENQ+dKduNO7IHW4GVYaXIsK0ZKUrtNMwq7nH4E5JCiONpLDDY0nhx9E0JoWVRrV0gbpJCreaXUha2jQMJfyufuJhxdEwkuJQuyyq2cdJykdPQMs6LI/4d/2tn/hBsDD9ZtWqVfIAzoM478hG1HCd6rVZjTB8JSrrtvIW2+AQbbm0p769xo72mPddI6oYasZ/FETkgSlItLW0n63x8Yll2592hOmKwmtLgNjxr2Kv0AnCeJHsQ8nIEX4qaVDw0TG28iCc6RXmPsYm7L/61a/cy/6+yG/uR1EvbRthmqM8dYTj8bwZvYd+f+6pfE8FcaZPjFph4pUm6VgRyvht74fLtO0abBMNfX36W6QR4zdzEdnagV49BFv0NhjdwNYLCv/JRrI0Ojy14o5GjjcoPPjQQ+72ubfLe1c/Xv6Re++dd9wR/0TLfMSHvN3cuXNlkjcTu+lJRPghEFnkw1M4e5FtWL/eHfBPwsyfJI0IP3pHWRjE0/OlCxfdVn9B05M4ZuxYd7O3wx2rszds2CBPkTxZs3hojheMLBzSJ0kM+SC9hDtkyFAKSRbjrFu7VtIwcuQIGe6ZNHmSdzMyamuDoe9ayXse091xvL0dbjGUGQ0/wzIMicnk9YrhfDGPFHBHQ4nBjhX6bP7Ld4Q5UJ95Cld3+EXEU0a4oSy5iRCf1JXKViEYGlvqU/TQMlD8U6dwg2FrEAzHdd4TceOXtKs9v4mPuEgP6cY/N9vQDeEQn5YZx3BHGfBd3ZJW4iNdfMcN8eFGDXkjHOLku5alxqXhEAZhkT7yz3HCww35Jz9A3eS7pofPMCxdLEaY/Naw1I2WPWVEfIQdD4tjnF/qNekmTdjFy4l4CIOyjPJ2TM4L+wNijx/teQHKlPRoWkOj5UT61K+mh98YrSdA+kiPutEypHy0/vY0quWJsqaM5Vz5cqYXkvYLwYKYpE1jq52BgwZKm6aLY8qUldaL/fsP+Af4j+VcIBRZzMKiFuoF55L4P1m92q1bs9Zfb1fkgZxRHDocWPSyd+8e2QqOvSRpEufOn+/b4THi/8P3P5B29JI/77xVZ+HCO9z4CeMlzR9++KHki3N+k4/zzkV3SmcGHQ+7du5y27dvF/sJEye6O+64UxYFMYL02e7P3C6fph07trsRw0dIuJMnT/FRX5ft6th7ksWgM2bNkg6CGdNnSHpqhXRSZzknpIvvnC+qM59MAWAhqdZd8h8SP0d6HZQ5d0bPoLSYjKPH4nb8Dk2cpGNKlh2E9nzzMbTGQ9XmAkDo0ZiwBQS9jgMHDZILh5vMAX8hIfp40wCr9BBa2gCQZ+bxML+SOYi84/U3vvUt6e1j3iFvQ2DLHeKgIfzWb33L3XnnnW6Wd8dGtMxx5CZJYzPPN0jceNi3ctPGjdKwcpNBZH7Lh/m5xz/n7r3vXhGGp/2NDzeRuB3o453p+g/o7959+11ZeUiY991/v3v4kYfdFN/oDBk6pPXcxCEPTEL/dNNGEbGsNGc/tbuWLHGTJk32DekIccOenFJ+/k+1Mi+DnpMwbP2u9anNjs/2aVChocKG15Z98sknMmeV7Zx2erPbN/4II3p2cce+bZzXHb4Rxx5Do43w4fxSjtzkEOi8yWK3t9vuG/QtWza3PnjgjjDf8Q8N6335MVGfhpewEDukmc2O2QifrUeIk/C4GXGu6J2mvAmHmwlh4I5wSBufNOaIJBpw0k2+uDFhTzi44cbGzZEbH+lik2PMGl//cEP8GPJDHVKRSDlxw8aNhkW+KSPKHfcffPCBhEW+eOggHG662JN27WHHLwZ35I36Tf3k+iJsTQ9lSdoJizxTllxviC/syBtx4Ac35I10kCZuyoRPWJQD9nIOfXzkh2sTSBNutJwIj0/KjzTzGrsTJ05KWSNaOKeEhSH/nDfSzrxnzi3pIl7SpOFpPdHzhsEddloWCEbC4vwxTEs5cf4JQ8uQh0ni0nqeRJZds5KVF8CeMqCeMK3oAy/EPnj/fdkdg7e9MKJDnV5y9xL3xBNPSBvKSBDXeZmyIF7OP1OTVnz0kbQTtIu0s+d8/dvr69n69eskHZ+s/sSna68sxLxp2jT32OOP+zZ6nlw7ej9gBAt/iDvaUB4QVnz0sbfb4q+vK/74eJljP2HCRKm3hLvZ1wkVsIhJ7jvM2aedot5Qxzh2h79PTJo0UR74qfu0AVs+3SwPky1XW6S+nDh5wpfbJzKd6rh3M3PmTLn3TJ85Q9JZK7QjXHNcv3RYUPbEf+DAQanbmzZ9KmlD8JIeroXw3IZo/S1z3oyeQ6Fhbq1MfOr3JIpWqrKVsF0a+Br+9N8ZEuUGfJN/4ly8+C73yGOPuS9++UsyR5KtgbiY5Sa3foNcuIg4bjZcQDQQAwZGPSE+gdIoITYHezsaKW7+fHJRIui4wLkg+WRoWW/YDKlwQ73C2xC8YPWBtYYnDQtD53Pm+At6umykTq8ncXOjopFhqBtz6PAhOUb4kydPclOmTPGN4SARg1Eao6AVjkXl4418trMW2MFS7CsF1/atMUTpaUN/t6U1GxHHvsGjHCjT0MjKfX/uOCcYvsfdIGq0x0jPoYaF3QVv1A3xkCbchm7UUE+iJ/loInsYh37HjYaj6Vb/oRutS3E3oVsNi/QgFjkWd4dfwgnLSf3rJ8c0HCkncaNh8aluomEuPjl24YKWJ5+RIRzNP+nTOOLxYd8xb1FchBPGx7ZYhNU+riicpLyF4SEi2VILgxt2TtB4IkMZ8caSKBzCi3ZX0PhCd1E5UdZt6YnsMAgXdaNpwp6pKIgRhCeiFze9BeoC+eVBHUHyvhePL730krx1a9nSpTKliHYW0Y7beXPnuoXzF0j7h6hBlNcqSJgXTrtN+4uhV3vrtq3Re7NX8mCxxV3w55M9Ju9acpd7yD+Uz/bxj6u8AYc2nraV/R0Rhp96kceDizwg+AeMwYMGS+cCaaXtj0RUMK3G28nb09iLmPbeZ6cve1Bi50VZ//7en+QxeqChN1SnJCHYqD88+LNQ9Kx/+O/rw9X4ygrtJAiH+Cl3FmsyTWvu3HmSjhtvnCTXBg9xb7zxpjwkki6ug3rFb/Q8Cs+ZpBHIg1a6vO7LQvhikEH63UfNb+ag8PbDocOGy1Dy/Q/e737zt77lvvMHv+++8c1vyAU03D85njp+Qp4M16xZ6076pzFuDBjZ65E4vGGrCZ5I2dKHi4qLDaQx8f+IV25Q/kYVbWTeT47xVMvQOvN1aFgkRO+HxoFNanmKpTeFBnCEb8g4hpgkfp6uGeJg4dDhw0ckTnpnGCJBiBIGQ/SV3Eu4xNEKs9C9kX8+LVixBRqOIx+RfWXPC/+/4tb/qjfEXys03uSZBwR6fGgIafQxo3258XDAXEoM3zlGeeJWTKVsafg5Px3C8kKd8sUPDxS40QaXHkjs+OShgXPGzYrzT2OPH45zXkJ3uJEHDh8ebsJwMIStT/+EQ7ihPd9JF2nEnrSTZk2rusMQPvYYDSsMB8Ox6KbWv13ebrgB+wnyOXLkaJ+moT7//SVtY8eO83nBDXmbIN/HjBnr8xa9z5g8av7D+PgkPm6SGNxEx6O0RGFRllHeCIv4+D1uXGQfpWmCz/9Yf74GyjnBDeURlnWU7lHihvOq56R93iaImyhvuBlSydd4iQ+j35kCQjjUF+LSvEXpjozWAdLEJ26AXlR6oujBRlzJtce1mUKWXXeCfCK06aV97733ZC4eu1s8//yvpVeSnjteQ0iZ0NP2zW9+UwQdD9GUn4aRB9zF3VKOiDjqJeeN64SHgQP7D7SeD8Ql9WKhf4j/4pe+LDt53Db3djfaXwdcp9QHxN1kLygRphs2bhAxxYMBYeGXt9QM8qKyTUwizAb5+8wwqedSJxCN2Pt/cj36ay2yGyS7amDH9UevID2cjBaN9/XrlL//0KmxYcNGaYe5J5AP6jz1EX/1hDCpx0zPuvfee2QbpSeffFJ+81Dwy1/+k1u2bJmUHQ9QSfSU+mvURh9/QVa9ehE2XEjaM1Ct8qTZt8UUfQndRcnQ31WTlEJlI3EfLsMShw8dlqcr5sxxfMbMGV5UTpMLnCEWhl+WLeVVg6/Kkyl7Tv6P/+JfuAkTJ7h169bLKusXX3hBhMkSf7H/q3/9r9xEL+QOHzkqK7Jfev55N8DftO6//373//rX/1Jey4WS/dsf/tC94O2Yf8Nwxx9/73vSMB08dND9/OmfuQ1r10mY3/yN35D4hvvvAwYNcJcuXnbLly93f/ujH8k+l1y8jzz6qL+ZjZJXgVE80ZD6b8lF3+LPBedDyqu1yKLGjfxid+XqFferf/on9zMfL8PrU6ZOcd/9/vdlu6CJN070brwIrvQKgQYTTRRIRs9bjqrTjnz+SH/0Td3hj6d8bkJnz52X4Ul6lIMKJW5otClXAmAj4Cu+3kbl0wYNPW4Im3pNGfOJ+Bg6hKHWodK4YmjEiZMeYnrXCAt/Kh5wgxhjOAijPYykhfLHIHgIh5sYw37ERxhaFiro+ATyhVu1xy0NPvaIFdJJI084XJMK7rlZIXKIFzvSxHCthgUisr04IkzyjfDh4Yh6oOkivSNGDPf5G+XTfNod8teR5h0In7IeO3aM3Fw1HnrmNAzc4474SDPfSTN54zvnWfNGWZImtuo67h/sKCfSxFxewuLccxNmSHHAgGiOppZnZE/++khclBG/yRvlhLgB4sKQXtwN8eeaHknaAdxq3gD/iJExY0ZLmgmD8iRP2Gmd4vxHYQ0RN5Qlw7rUF8JkP0MW5RFnT4U6TzkyXQHBxZAuQ8TsloGI44GYh2nKg2uDURse7L/0pS/J1CDaXcqxVjh/2jPM9CPmYjJXPupQ8Odezl0k4Kjbo0aN9oJxslyf7D3McWoR9eqob98ZEidPpJsdQRjd4hWKp0+ddBcvXZZr9rbbb5MHDBZc8spGpkRQZydNnuzmzZvv6+JYN8QL2917dkfTaLbvkPzOmzdXrlPqBZ0BxIfY3b3rM2nbqFPDfBq5nhlhYZibRaEzZkyXe8wofz9oFNTtc76N5YFA53lGbYiTaVzcfygL6rxhhDRETELcTRQLx/jS8Uk9SgbH2tyEqPt4ow9tx+gRjCa8I+Q2+qe7N15/Qy5QYPsf5hpOnz5degL37z/onvFPXn/zl38pwxC8Ceff/C//xjcyU93GjZu8mHy2nZj81//Tv3Y3+qfoo76h+vHf/sg978XmAN8I3evF5L+siEkvI9wP//pv3Iu//rU7cHC/W3TXYhFvpHD/gf3uF17Urfdikhs2T8WISRoOnnSB3lFWONIgMn+HRT00KmvWrJZ5Og89/JD74he/6B544AF36fIl6fnUjkUpZH+jptGkDGjYmGTONkQ/e/ppadgZwvnun3zfLV68SITx9RYWf7QJLoKJhCSmI8nnLSLpHIVUs1fCOCK3kaCg7pFfbvCIPEXD45O6in/ETsdw2ub/AvYIGwQNgkduMiO9GDWMkiBwMdyAqVcsKqFu9VQQcCdOnPIPwR+6t99+x22SRYK73DlfBgg4rkN5ePDXGtcmw8vsf8u+vk9+4clKKPWD65u2Qa9x4Drn+ueTB0HShEkDt5y/6CHrWuuDI+nXh0ryRBiEx3fixB44xrnnOHGSFuz41PaGT0wI9YZOENp76gzha5um6db4OgPmHe/bt9+9+eYb7qOPlstwOK97ZPEnIpwHLiVsa6uh58LoWTSsVlJhQhMnfrxa5crnnkqKiQTw6dOn3PYd2xyvFVy/fq1jxVw09+OCzFsZOCB6/yph8WQaDSUM9Bdr1PtAb42CGy5mLnJee4X4vO6PyTC2b2CkAaMx8fFfunTBnb9wTvZ0ZI4MjRHbDjHmrnkgvNY8yLHrrl//fv7JfbgXfJNF2JDO3btZ6bdNGjYaNIYf6MWJwvFhSAAe/0Ve4+XDiXp02tIOYXnpnB0pUxGNUbqiEPkTpC0gPCbuJQ0RSe7jxP2koe7ibvnNedFGnQccyp1PfnMcexpttVfD79CNGn6rvZw/w6gBhAJigF4nrldu/j2fa443gG3e/Kk8QLMFm4gm36aSf+0dZCiZ+YmPPxG9d7oR0A7RltPm0lbHPzk/1c4JYXAv4PxxHjmfHMOfhkUc3A/IJ3aEy3G1wy3H1R/2+A3t4hAnPet0NBAOfjTcLH+NgpGCadOmSu/65z73ORmB4GUZzz//vAz903bSJldLU7wd78w8GJ1HYTHZGRWBKMrGE1Xc6/7ii4YG6ZljI3KGs2Rl5rq1bsP6DdJrySR5WXXtBQnzXVi5x2KatifASHCxVRC9YXv37HXHjx4TOy58GhmEy/Fjx9y2Ldvcp5s2ybwgekLP+CdbXv7PFj80DoSpAobhaR2ijlIbGfI81MfPAhuGthmmOXnyhAzXYccxtp2gp5QV5YH8i2gtM463/9S4Jc52FzffIwEuPZLlir3TIO1Shr7cMfHv2MfdhCZ00yEs/9swaoHhbtoadoLQIfSeDGIKscMc3qlTpvh2cai0KEzrkTbcG64zRBE7YrCS+fbb58pUokZAnLTPtLdxw/G8ggz3KhxJO5DXMGzC0bDC4xqH2vGpccftQvDLfUWFYxif/k7y1yjIN4J61qyZ0htJRwbpYDESuySwRzL3Tx7oaUeN3k2pnslGVGganDSS4gsFQYge44ly0qRJYvhOGMzn4TWJPFmxYfkvfv5z2V6EVyiOHDVStolgry8mU3NR06tIWKzIZh4Uk8rXb9gg8TBBnwYUEbJ79255LeILL7woYbM9yOkzZ2RlH3FjImF71V252iJz+aSXjAvQZ40c+FSLQGS4m6Ex5uTQiOAHQ6PGogfm4wwdNlR6RKO847OtDMgnjU4IF7qGI/6kx1WfKKPGXlJBWipfy6BlT7hqylDUf+hO/UV5SrYzjEaBiGTlMNsEcbPlITQNraPdGdo12rd77rnH/e53fjealuPbThoS2kbJo7/meFi/++673X333Se9bwiVrPzXo2zi13ot136YHr5jksJTuyTyxh8PIy28zoKRMFZ5f/3rX5fFOUDdfuqpp6SuM8+U+1ka8Xx3dX6MxpB7n8mwR4fKUfzCxH17Px3D4Mmr8jWgeFzRkyJQyam6bB1D2uk5YF4K4vDQwUMy7xBheK9v5GgQmU/JakDSyqblLOQgfoQYw6E0nLdU9ppE4DE0ih1zh3glF8PofGeLn0WLFrm7773HzZ8/38fLmx+OykTsCxcv+At0jLy+kSc+elFZ4Uf66I0kt2yuu2XzFpm8Tvxsdsu+lPfee580zGw3oRelPxvRZ1BOfI/CuyaLkNg4FyZOmCDzOFkRPmz4sCiMSjiEJH/9R1tIxSlzvuK0D6NNINKjq/OT8sRSLS2EifhGuLPtBwsz6pF+o3dCTw3XLr2SCCaGc8O5ZUl05/pG2rl+GAJl5wm23pH3XPvrFEObycroBQsXyH66LD6R4X9/van/JJqxTDRNfGalrx5pj4dRjzDLou2jjsbpsD8LzrifMnIW9uLmSWtX5sdoDKXFZHHw0+YvHga/o2OY9k8ueePDHekjrVRqKjfzdJivePbMWRGWTHKm4WPVLL95mwDi8OGHHxZhx0o5ehSHDxsuwo600DPJnl+nzpyWRTC8wYDVeFOmTPWi5oqIQ24e+iYRVvghIB/93GMiKFnVyRsFeBMHFx5ZHH/DeLnRMKG5P2LSi18t20EDBsnKSPZq42LlYp4+Y6ZsZ8F+mfQG+DMRZdrTVnZtT3340bLgrRCkj/Kgp3b+gvnRkL70IIjzNnwwhKQCtQhhOkDTUoYwHEmN/014oZiMbOJu25Nlp7SKycGDZJpBHj+GkQQ9k0xz0YUU9NQxzSVErwvqmdbr7lrnaF/ogWQ1Mvsx7t+/Tx6cyRPt63n/YH3HnXe4Rx97THolGf3pW3nQ17zr92amWvrqlY+kutAMZUMauKcyYkYvJe0ldV33VOWeR0cLD07cy7LSjF13Oe9GfnKv5qZh4DPLebxitHeLHYZjaY2nuonmX1SLK8uenjsaugu+YWMVM9s8MLcRQYcYARGbo0fL1g/TfCM34cYJItTY7Py6TwI9jYcPHZReTG4O9EayL+TcufPlgqFM9u3dI+HTi6nlw1YT9Eyy9QRD08P9BXb69BkRm/RcMIeTi3HSjTe6GTOjN9zQwCJqeHc3aWYF9o+fekr2ZeNNDY8+9jlZ/ciWGszlZKhckVINykLLlmMYegz27N0rvZxsus7eZuR7oBdP4tJ7bfUvByIpGYaZhzDeJKrZh3SsH33lpnXZlw/DKvT++oDERkPr6CciKz7sOJdSF/x5GzduTGo4hlENhv948w7tDStev/3tb8unQt2K18fuWt+iB9X98nYg3dib/SNHePHMtkD00DJPnS3QvvLVr0i7g+DIgrKpV3nUI6ysMOqZ1u4E553OCeo4dZ3eaGBUj9cKcy9FXMbRep9UZr21LHsSddsaKK2CtIE9hmNpFUePtZ8zkgT+E934IJBC1/n0bvojDL078sBTMm85IS+ASJOu+yHDXJ9+UdrIH0ns06cy4dkfvXy57W0nCE3ZPNmLQen9u1aZi3j5iohN/NLTiECUoRzvh43MSaos8MBNBS0DVmEzYR1Rg0hikQ9i8umf/lR6UJljxKscH/NP92wsSxrJQ1iGpC1KXzRfMiybaA/BKF78iD+88p0PyouEA8cqX8Mw8qDpSfIXphWqhR13nyYmW0Op5CUJjSuePn5Tlq1icvQod4N/CDCMsrDKlXlkPDQyevEbXkjxSZ2jvmHidb9jXW8e4tcO0PZw/fGATY8kgoJeKnac+PKXv+xumXWLPMBix+jKl7/yFffY5x6Tni1tn9LQcqoH9QgrK4x6hQ9J4WTZNQs8PLEYh9ef0hHDVDFG3Hio0MVEQF60vNLy2sz5NKpTFzGZVgnaB40bDMfajod+r6MAo28VUwzCQl7gU8ON5CBhR5X5GvaVLX/oveSd3OwNGfmLhvJJJ8fYQkfCvK6LXQgnSDMfGKwq9oJY+z9i549XrNhKiBTyPwo3suAvgpLGlvlGvOP5mV8+45751a9kLsqc2+a4P/7j77q7/YV6001T5RwgbgkjDKc1XR49FiUC2i5W7LDlr4YRWbS5hrYwIpLDj8iyg9Ae8riByB1p7Cgm24Xh/Xb0HflPi5vjJiaNekJPHIbpLPT+80IDPrNIqqPNCmllpIZpOLz3nXlzjLIgHnhzjL7R69LFSyI2GQ1ib0lekKB57C55bTTd7bwnpZW2mLrOgwM90TxUsJcxr8hkX0qmeIXtbfjd6FnknjPJjVwrQkj+SoG7jm47+ud3x3jyEA8rLi8Qj/QWsp+jGOl51AoexOlFrQalFxFDy3xGcSAJ2/wQRuTGP3WLdWQv4fr/4qcSnsQoYbSHY4gaGmAWy3y2+zN34sTxyrD6XHf/Aw/I22t4VSDnIwkNt+08SWLEYBePV36lHU8g7i4ky05RN0n1COJhhPnAjt/xOZOtePs86U6Km/MWzZkcLHMmDaMs1C8eABnOpUdSVy5XI8/109Voj6S853rVKhnqZF4oIpI2ih4phCQ9Uhi2MOMtSXxyfZHH7pDPzqQ7lIe2mUlppa4zJxhDLyS904ym8fpF7LR3kvMPGobVg55HKTFJRVATJ7xZt3fDZ7UKpG7SK28SGo/E7b2E/ryNfGIXmbaFROSLXkrx58Eb7sV7ay+p+lV/lYMVt6SVf1houK3471F4iMvIpdIWZxSGfj9z+ow8+dNw8w5YGmlWcc+bP196ONr7qwZuIneSBvFb8S/G/40Fo0PcSeFnxZkvPcngN/TfrgyFShn640XFZFK48bRWE5P4i/sxjCSiHu7R0iPD1mE6zKf1V7+HNFvdSqrvHGMxIPO+f/3rX7v3339f5six3c8jjzwiD72IBx3Gxj/vyeZNYzwk+wNyvLuRdM7ix5LKKyQpDMjyA2n+OhPNW1YaOL8svOEBirmSvILxpZdekocojnMdICqVrsyP0TgKiUkIL5ykyp723f+qmDTUjs/8F1FSfJHvthADDZdA5Aqv7aNr9yOA4xW7ivKSX3K4YqfW0UfrZ6tVPD3+YHhoiL8hcTNi6Oi222+XRnvcDdrD4V1WzY8a0E8Iv0e0z3OSi/ZoGSedmyy72mgTk8w7bd0aKB6P/x2PWetoFtXEZP3zY/RUGPZlYQJDfowy0CsXCsruUJfiaZTrzt8D6G364IMP5FWD+t5xeiO191Xz1+rff8j3WHjNQHgfy6JdfjzqLzxWLZy4+7yU9VdPiD+trMLjfCIqqetMwQLqP1vl0a5yHGHZ1fkxGkchMcknaAULCSsJ3ztWGn53dNNmKhYBHcPoGHaSG/Cu5K8Kr7Swwk8ct31XO/5GPY6RnZoKHFMTHSAU+ezLYb6ThuhQa89fiBzCmY+Di27c2HHyMn3mnEz1nwhJebrHoTda9qRHTRuViFpNG1EyOdbmP07HIx1Rf3H/4W++J4VfDsKK8k0dpNdWeyaz0pBUR5PSZMPcRr3gBQabNm2Slc2ILlYwh70y3Q2uIcQBm6+zYpvX6dELuWTJEtn2jBcsSNtUDS7FjOYgbNPqSVa4ZeOqdxqbHfJLOVYrQ+oBbSj1nd55Fl9xHfCgwXQIpn3Q1mrvtdGzKHVW4zdp4FiaqbgITLL70B6iY20kVeYOYfj/Itjke5v/eFgQHQtNdIzD0butNV1h3Oo2Og44FcN3/yWSk232OmIuQSYg/iph4I04Ee9s/8M+lqwGdywaCtKi6YnSGx2PqARSMZqP9iaiNW/881/D9MXLOh5nHlrDj4WVjZRGxSiEoyYKNzRh+OHxkPQ0pB03jOLwoIOIZN4YixN0RKe7wnVz7Ogx99abS9369RtECLD1C/vjxvfPzKTKZUY8xdqJ6mjbkBRu2bhCf/E2pidTpAzZi5J5tI8//rjs3YyoZFoEWwixx3NZwvLuTWXfXSgsJms7ieX9lr348xFPl/7mMynNwbHE8gj8FU22D48ypgfuGr3BLczr1FXmedH4Iz9R0aX494erJbGeZU9Y1cPLsC9R/5Lia0tH8fAMIw16zJmGwUIEPnU0pztCXpi/jRhYseJjd+L4cZl6Q28rb9BijqTd1I049Eyyt+odd9whhnrCVlm8upipEsy91ZElo+fQJf3NeiNvu6G3Ef5OcwNJx+pJkUYSt6GplXh4mLAs1BQhyz3hxwmPaRq6O5qPomVnGHmhbulQHqbodddMIIjZR3DpsqVuy9YtslKblybQMwnkrdq11BV5rPU6D9OsYSURhh+645OHiLi/pHBCfxD/nuSnO0DdZ16tvAnu0UelF/v555+X7aR4QKFuQZH8Ut7qJvxuNAeFxWTZCzQvVjmSiZdL3nIq668ahFMm7CR/1ah3ndP4i6bDMPKgdVxNd4T9AtmAnc2o2UeQYe2FdyyUudyFhre7ANqLerQZTFlgQRVTFsLdTNLQOPHHcC69cezHybQHSEtT1vF65KMrIN30SLK6e8GCBbIrCb2VLE576623ZG5xfK/gPPntruXRGygkJvVE6knPOrF5T3rRxrazG+hq+YiXQ1H3oMey7EDzXrbMsvwlxR//nYeiaUuDaMP426Ur+AsSZ8Vt6CeLeqXTMEL0OtOeqdAo+jtPPe0qduzY4ZYtWyaCEiH1la98xT344IPtVqfnoVnyGD8HIXE7TTO9Z3v37pXX5bIIKW3KQvxcMoyLGGeOIC+gQIzG0Tjj5dPMdaIMug8pC7aoP4jzX/7yl1I2LOoqMw2EMtKy62nl1Z0pvM9k0gWQRJabnlQBNC98xvOVlM+8x5LQOPK6zyIejn7n/CrxeOJ+lPhx/Z7mPhv8dHzGIRxeC0ldZC7alavR9hOtEFflKySlJw2GZGw1t1EPEB3UJRYhsOqZ+YXUK+qgXlt8r1YnG01SO84xtnLRV0KyvRFvMmELoNtvv132ESRvcb9JYTUTmr60NIZ2uKV92bBhgwzxb9y4UY5xLsl70sr1pHBxy/xAenbpoWRol3so/nvjnouUByu8ab/puaVXEjGpe7FiX4TeUm7diaYUk9h3l8pSNJ9p7qvlN25fzX0WedOVFmd4PG9YaXR0m3zuOdZeTF6Vuqh2/k87MRkRHamWHhOTRr1QwaCbNbMHY/xGWa0+diaaFkQwPWi8Fu/jj6N3bXNd0JvEilyGK+M9kvF8NEu+2rULFfKmjd5INmbnfeMIyjNnzsh5ZOER+a+2DRJxU264RUwiRnm9Jj2cakdvHekhrKR0JaW/u0PbSh2i/WbxDfWLsmW7IMqD68Xo3tQsJvmeVOn1eJpdFtXs602Y1tCEZNmlkdddI8mb5iT7+LEsN9oAxiker6a1begpjIO6eNGLSRqkdvbepMUUj4Pf4TEaeOkxGDxIGjbDKIu8j9qLET6pn+HrFOP1rivRtJBGPknz22+/K0IS8UNPJItt2OuWXlYEcegeE0ePqZuuIp6+8Hs8bfHfzOlbv369iGraBBaPLFy4UARlmvgLwR6jgpJpAQjKtWvWuq1bt7hjR466Ft92DR4SvSlJ3adRLb7uBHlBNHJNUO604cwtpZzo+VW6uv4Y5Wh4zyTu41Tz39kVqUh+itDZ+UgibxrKlgHHks5xSFbYHe3abnIhekx7JnVriVb//rNjLO3FqKK/NUwafm6WvHnIxKRRCwwT0wvFJ23mlClTpFcG4vWwGaD+M4+NzaXfeeddLyqPuQkTJkpv5OLFi2QFt77dRknKR/xYM+ZVSUrrlStXZa4jG84zzE+emaKwePFi2QZJxXQecIeRd1MPHuK2+bKll3L3Z7vlIUO3xrl2PZovSNihUI3Hkzfe7gDXAgKb/DLczdxcvrM4h3Y4fPAyuhd12xqIkx+vANVERjU0zKyKFdpluasGac1Kb9685E2D5ivJfZJdeCxul4Xmq0j608JPCitPuHnjVoq6TyIrjNBO8ymfCXk2jCKwUTm9W4gz5hwyfJx2PTUDPJyxGGL58uXyTmUepn7jN77hFiyY30FEQlI+ktxwjdXjOq43afm5ePGCfwA4LD2SlAfD2g8//HBrj6RSJE/Mjbxh/A1uwfwFbu7tcyUcxNMrr7zifvHzn7uf/8PP3bq162S1PA8eIaRLTTOWYy0gsnkNJ2XMUDfXCSJeNzSPn6Oelv+eSqmeyTzEK0QR8vqNu+N3LfHWSlJ6kujKNDY/lE3H8qHMqHvxnsk8ZJU3YWrPpM2ZNGpl//79suCCHiiG9NgSpVm30mF+IDfw9957TwQUQ428IvHOO++Q3qMivXFx1F+zt3XaniDy3nzzLelR5nxRDtOnT5ch2DAPRfKjbiUOX9b0TrJNEPHRK8eDx0lfT06fPiVvOevXt58bPmJ4hziavQyLQn6oW9Q/hPSpU6dlagXCfcKE5Fcu9rQy6InUrWeyK0gTtlQ8NY0mT1yhXWekKY0wrfVOR97wujJuw2g01EV6oDB6Q4y3U/xOa7s6E1bTssqYXlRu6nffvcTdd9+9MpcPEVUrlEUz5BPSypyHUoT/5s1b3KuvvuqOHz/hbrvtdjd+/AR5uIyLmpA85xHRRA8cm3fzHnOmDVA3EPH0BL/80kvumV8945YtXSpzKhkCR2giQMOw88TV3eCBhYctWLbsbamHLAKjN9/ofnRqzyTH1GSh9kUvnmrhphGmKx5G3E5NHtRdmI+432ZoIMJ8pZmQ+G9IOpZEdXfYJ4dPWSX1TFYLU+35VBNiPZNGvdCeSW6KDBknvcM6qQ52Or7Z2bVzl2xdAzNmzJB5kswPjPfGVSOrfevKfJIujZ/PeFq4pzFf9I033nDr168T95TBww8/KKuMGY7NIinMONgjHi9ciPaepF6wb2W/SptDnPTQ0SN66PAhd8CLe9o2zgFG3eSJq7tBudB7f/78OZliQP74zvxJhKbS0/LdUynUMxk2Go2mcFx1rG9aeetRifPmo0xc+OmsC62z4ilLVvo6s94avRtu/syVQ0hW69nqKhArDLfu279PeoMQTiw0mTRpktzcm/1arxcISeZIfvLJGv/9mMzjmz9/rvQkhmKmFihLROHoMWPcrFmz5BWDIGLSi6nr166LwGTO4Lvvvudeeukl2eOThxIemnsyXB/UuVtvvVXe4X3m9Gm3etVqt3fvPqmfdBwY3Ye6tXTxBii8gWOH4ZgaPZZE1Zs/3vr6P6EJ1GQYj6LxxQ2E7tWoHSTZQ+gmCXWnJIUZpqEsSemolrY4mh4lKT1ZaS2a/qLpU7JiyQpT86cmiXIpMow2ECEMZyIcePVgnuHiotdONdLquf5meHvXZ7tkdfGRI0dE4DDciJAM/aSFE4frTk0zkZQezQufrNp+8803RcxxrtgKac6c29rlNynvHEs6DmqHrZiKO1Z1EwdlTY+clJe36t+vrxvgH0BY7HTixHHZ25KthJhfqa8bbLZyrZV42TE39ctf/pIbPXqM27d3v9u0YZPbtfOz1tGnuHujOSksJsucWPw0vEJUrrfOqnjNcIFn5bVIOYRu+a6/i4SRl1rCTPJZj/NACD2ruTa6Ct4Sw5YyvDmGm2S1odJGE7+WmY/GPMkPPvjAHTx0UIYU2UyauXz0qiqNuPabBQQ0QnLt2rWyjRPn6c4775TzNmrUyIqrNuJlIUIwpd2R4wl2gwcPkocMeoG1x7rl2jV3raVFhtsxnAMeQphyQI9dV9edzoJ8T59+s/RQTpg4QXrLN6xfL72T4XQmo7mpqWdSLypMpzY+Piqe6opCGuMmjSz7tIakK6iWj1rR8KvFk1QmaeVULSzAa0f/7dPRTOfBMIANvhED9PQhDJIEQbz+16Mea5gYwguNHuOTxR27d++W7WkQVSwMIc0Qdx8aDbu7Q140/7w3m/mKDzxwv3vwwQfcsGFDReThphbw3WoqYQ3yApL5qPrGl779+nkx2eIue3HPOSEdiNqvfe1r0kPKKyx5MNGyzyLt3DTr+YrXJx5iKBME/eJFi2Vl/cpVq9yJ4yekbGo9H0bnUJOY7MrKKnG3MxWLOhPPY7xiF6noYVj4U789+WIpm7fotMZPatvNTcFNaAyjK9F3W7/77rtulb8hMqQcJ16H64GGGQ+Xa4Jj9HwxnPvhhx/KG14QkLNnz5a5aryRJPQXDwOSwu5OUA76mkTmJO7atUve7vPlL39ZRBxippH5ZmibbX8Y6mbbIcqfnsmxvuyJn4ePG24YL+KJ3mNd8ArV4k9LYz3SXU/C9lnTHObxxhsnujm3zXa3zr7V/3bu7bffli2r6J0M/RrNSc1zJtNOcqdUZKJuNVE6ysSb10+au3rkNQyD71lxZdk3I2Faa0l/3EeeBqaW+AyjKKzUZd4bm4DT88W8t64ivD4YMmRRB2KKTaIRMKw0R1DSA9aTYSEHm2OzmTz5Z09DxBq9so8//rgMPxddwV4UxOTgIUPcVC8m77n3XnfTzdPcKC8oZ86a5e64807piSQdbA3EwiAeSliAE2/j+J2n3etOkB/Knn0mZ8yc4RYsnC/C++MVH7tPP/1Utm5CZCfR08qiO1N4a6B6QMWJh1WPC1nD4FONUjT8pDAg/F1LecTDDcNSO40/dBv3l0ToL4/7LIqGVc1N9TCw7+gGf5QRT/NJWwOFpii2NZBRL9j+BdHGPoKs6uYd1yxsCUm61usNcej1wHd645gnuW/ffpkn+fnPf17mqKX1yPUkEGjknV5ZeiTZnP0rX/mKzGtlvqgKSS2zehIPs3//fl40jfN1Y7CbMmWye/KLX5A37Sy+a7EMhTP1gDSyvRTD4izoQohCeE6VRqS5noTpS0qn5kfdkVfptfV6g15JPmnvKQfmVsbDSArT6Bpy9UxyojsVKkhCpam14qj/WsLSsqhnmdQzrKx8Fc130TIqW6blyM6nYXQFXMvcANVUu7bree0nwY2Y4W02yF6/foMXj8NERLINDqKyp4OQpJeP3mJWSCNKyP+SJUtEVHb29k0jR41ys26Z5e697z73hBf0DzzwgLvLp4XeSXqKmW/L1AgWoTC3k4cSOnMaXU+aBeYYMxWA+cb0ntOj/PHHH8tDGr2Ttl1Q81L4Kkqr1CpUuvJGTtrUpFGP9NXjws5Ka3g8zU13IKlOaH7CPCW5K0Ke8qk1DsPIQ1L9jhPWRUye+lsUree8sg8RxX6KR48ekXdu33333dJrCuquGo1IY2fAkDHCjCFutt954oknZE9NeiPjIjJvWRQhHiY9b8TNfE3SwYIcfQc6QvLJJ58UoY+oYjieXkoeSrBPSl9WmpvhnKWlL36N4C48xmp2piAg/ll1z/mjLlMWRnNSWExmVY5aqNV/nLBiQtHw1X2901WEpLirpSsrvdhl2ccp4jaEOpLVyNUDgg/jCNNarQwMo1EgDBBq3ARl1W4n9nqFUM+58TJcykIGenVuueVW6e1BwOjQaV4afT3XG/LOCmnmhzLvjiFjxBsbkjOM2hltlMK50HaHOKkTWkdUSAK9pCyGYlEU0yOYf4sQZiunpIVc3Zmk8g+P8dYoxDXzSJkmwtQRhr27cg6ykU2ulk5PcPzkxwkvmloglrSYwgpXlHj6NKy08OqRF0iKJyvealRLV2hfax7wH5o0yuYlpExaw3iz0lgt/YZRD+hRYm4Xiwl4xzWiTetdvA7q71qunXiYCseYV4yYeu2112RO8D333C3z9JgX3FUitzMg76yIZtER28wgyFho9Mgjj8jQPucoqczqSVb4WW0W9QUxyWsdmZ5A2umdZBFKSNwfxI/Vo03uKhDWnCuGvKdNmyaCms3cmbagJJWB0XUUalGKnLysitzVFUDzEaajyIWH2yLu4/Ek+S0aZjXi+essNN64ySKPmzTy+qt3+RpGErzhZOHChTIXDlEQLnBpRB1MC5MhQVaTIyYRjvTykB4EbhnKXp9dAWlFgD377LMy7xBhz3nhU3tkk8qsnnkkfMKrFmb8/PGd3krOE8PdzBF85plnZJspxKWualZ/YfjxsJqVIuXMRvL33Xef9E7ycMBDgvrvLvntLXTZ42k9K0JSWHnDj1+MRSjiPusCCsMpEiZui6a5kVTLYz3TSlR5yzSkmcrL6HkwfMlQJeKFT4RBFo2ojwzxIjwQkyw+YVibmzKCEnHbk0FssZ8kPXrvvfeeDA8ztE8vF8PKRYf380JblNYeFWn7cEca6d1mtTlp5r3d9Mox75WHhO6yCCWrTPLC9AS2cGL7KoQkw9xp2wQZXUvdxGT8YgkrUSMazCzyxNfZaao3YfprzUtWWPwOTRpZjUaWv7zh5ycKJ56eWhs1w8gDCz6Yo0dPEiIga45Xfep7e6jnzBVERLIdEKu5WcjAUGHSNRZeF2Wv4Wbi1KnTXkS+78t/tTtz5qyI6Iceeqh15XpSHjmGqSWPWrYaloaXN0zch9ATx0bmDHfT081rH3/5y1/KohzOrwrKpPDjYXUVafnPWybAww/bN2F4UONBgRXuzZJHo4269kymVZJ6nPgOYRBVxWCTFENavI1MZ0+iyEVfhuSGpvIlhTbrtHNb+VIArT929o1aoeeIGz83fVagIuY6E3olmV/G8Dbz7OjZ4jV1iKlGX89dCeIKAb1586cioumZnTdvrgwVM+8uq0eWcmm2smGOKwuFWPX94IMPyncWU9HbzEMKPa69YZscykF7+/nkmmKbILtXNx8NG+bOujhDO72Q81zM7SoQ7ltN5VgF3OWpbBpvkvuk9MTd54mjGlnxhCZOmAZNR5K/0KRRLR/xeEKywk0iT3qKkhVWNbt6psMwWCBw7NgxueGxAXXWq+CqXXdF0LAYCmSIlyFRFppMmTJF9lVMmysZ1v/ufC0gojdv3uI++OBDt3HjBi88Brtvfetb0qvHYo6suZL1RNuUavHE29O4e/3N+WODefLBCucVK1a6pUuX+Tp2vN2LG0Kqxd3dYM4vYprzyH6pzIcNyy5eliFZdkZ9aYiYLHohxUmzTwq3zW19K0xW+spSNMwy7tP85AlLy7doY5T3fFdLX2QqBwpCGtLSocez4jeMekEdo9eoWl2jXtajPhIGYSGomE9Grxy/2ZiboVLmbfbU1dvknX0033zzTem1YwiYBRv05iHE6JlNaxe6krBNygIRTI8cG5ojKmfOZFPzs+61116VN/rw4EKeezKUAXOQmftLbzu9k5xzXeFOWaad4yw7o77UvYVJOnF6QuN2eRvSuF/1Ffov2yRrGEnpq4b6SfOXZUe8WfnPWzZJxP3mCSuezrR0p6F5zeOvaPri4RZLWUSedBlGrVDPEG7cAPnUuptWx7Ps8hD6paeKnlEMvTj33HOP7FfYk4Qk+dU8k1+Ge5mjyvZHbANEvj/3uc/JPElWb7NBeLOibVKe88/WRmy4zpQF8vTOO+/IAiPdNqgnD3lTf5mmgeGcM52Bc87cSaN5qFsrU0uDCFn+tQFR4/+I6eM/xHg3ZaRCVpyKXvDQGn8F/Z0WTpJd/Jj+jhsl/juO3qziJstPFhpfaJQwfCXLfRZF3Ydk+SgbpmHUA64NFZM6tArhNRMny64a4fXI4gS2wuE3c8wQU+F7wXvCdRHmF1FBj+TKlStlSsHtt9/mBdfjMkeS3jx116xwPsL8hITnSt2RJ1Y20/PKSm96JZ9++mnpkWXbnLRh7+4OeWfuJFM1mLLBdUWvLHNI82L3hMZT10fWsieslL/QC99jQaRdpNC1FYs0abr0e5jO+LG4fX6K5BO3nVEuWefFMLo7iDd6UBA0bGtSbWugesJKchb+cH0hJhnibeaeubLo1kf0RCIqeFMMw6AstmFYv9l7JMvAOaUu8UYY8smeodQ1euiYR8iCq3BD754GAlK3S2LuKHnmYYLdEqgPRtdT9/GPUJCocFChkiRWGiFg8oiVvPHWM31aHlH6KHr9rr+TjunvZLRc40YJvzc7SfnUY90pH0bvhXcK89q+xx57TOYsas9gZ9RfHf7jmkFM0psTktWOdCeYIxhuv8S2Mb/zO78jQ8GIyO6ST9IZb6+VrDwgltkUn3ess/URuwe8//770jPdk9rJeF64lhDSPKSxawK90Rh2TKiW755S95uZwmIyz0npjhWaNHdWuttHk1Se7Y81W3E2spzsmje6M7SP2kZ21g1MF92wghxhwbxBFit0Zq9oZ0EvFEO6rFZHPCEgFyxYIMOfbGyt81S7C2XSimBGUNJLxysi6aljOygM9aCnzp+kPpNvHh74JK/UA+pDdzrnPZVCYjJsJNWk0R0FZTXiec5TDiGdIVjDNOVNVxJJYSSlP3QXd59FXnd50bQlpSHLzjDqCQtC6C1hPhc9hTqPrZH1jqE+4tq/f7/ETQ8Ow770TMav1+6EXrchlOeZM2dkOJ/vX/3qV2WhEUISkZWW33hYae66AupGPH0hafa80ehrX/ua9E7SW8uDBIKyu8+d1LyG1wy/eVDQPSfJM/Vgw4YN0kuZh6QyNOpH4Z7JInTVydN4Oyvu4vHgPjLXr/MU2fY77ZhvUuTiqmbqRd4yzOsuTpL7KJzKjwpZ4dY7z4ZRK6wwZS7f+vXrpdekM7ZtIc41a9ZIXNxk2ZOPPSa7Wy9dnKTrm9cKfvDBByIq6I1kbioLM9Rt6D5sO5LCaiaqpS/JnvPLeWZj85kzZ0qdY4U3DxU81BRtk5sFzWva+UNMsu8m+WeuKGISAV0tv2EYRv0pJCY7q3J21kkvE0+8DIqXCe6Lm668BpLKqUzZKWXqUdm4DKMzYciN4Wa2bKF3stHvEeZaQkwiJNiwfNasWSIm6ZXkZttTYF4c+aQnCuFMTyRikh5YnZdaFG2H+CzTJjWarHRxnPPLwhQeIBCT9E6zspvFKfRQMyWgGfNVK9Rv9t1k2Js8Uy9YfNQT89qdaFhrU8vNP+siKoqKnnqIkXiaiqYxKQ15j2mZhCaNPG6qEaYhKaz4sazyxU5NLWmKUzSkpHwYRj3hBo+Q40aHybouauXateterF5p7Q2ll4r5g9xsGxlvV8AQ7htvvCGimX0V6ZFEQGWt2tb2Juma1/JRu2YrL9JFmjQPcTS9fHK+EZQILOrfc88951asWCG9kzxgdFfi50TLgTmivGt+zJix/piToX0e4LpzXnsCucRkWJn5nlS5Q+KVwGgMSeeh2rnpbMK6UEvaEv36Y3o8Kx6rj0ZnQn3jpq71rlHX5NWrV9zx4yfc0aPHZP4YW6fQM8mWQD0FeiTpfaK3jeFtenqZK4iYZLgz3MsziTzXfndvH3TBFdsFUS5sEUV5rV79iXzvaT2UPEAwtWHs2HFeWI6QraEYBTAx2bWU7plMq5y1XphJ/pv1Yi+aLsoMP0X8VXNPmKFRisZTTzTuMP4wbSGh29B9SJrfOPjPiscwGg31j5s3c7h0/7uselkLCK3duz+Tm+mgQYNFXLEPIfMJ0yAdjUhLo0AkM3TLxuRr166VHikWnfCZt+c3yY2WQbO2C1pnMHnSyAPEXXfdJRua80BBT+4vf/lPbtu27dJ73Z3OuRJPs5YDn5jx42+Q+n7kyFGZO9noKSVGNv3+3FP5ngpbDeR512yt5Llo6kWtcZX135l5lB2G1DSQME9aR5KO5SM5wYRHONRDbqLxFYtly5UwdWiSJ/yhQ9NvxIZRjfPnL0gdHTp0mOw5SS/akCGDxa6e1z719sSJk+7jjz+WYT56aliUwGIM6nMapKGe6WgU9DKxYhshyTxJrneGtdlbke2AmCdZrVeyGs1eDkXOFe4Q17RjQ4cOlTrAPMJLly7LApUBAwZ6uwGZ0wKajWp51/sAwpkpH9R9HqQoA6PzydUzqSc16eRyLO2kq11olLTjaeRxX81eCe1D8ZPkP/yuJB1T4n6z3NaChl01fLFvc1vVfQZJfsNjoWjU7+ExyJsGnCS5S5Ol8XiKQCxqDEMpU6foHbx19hy3aNFid9ttt4uQJJzEulwlfOyT3HAMwXru3Fm3efMWEQsLFy5wU6ZMyXVtdTVhvpLySI8uQuiTTz5x7777rtuyZYvsK/id73xHNoRHOCOcaqE7lFMZ2ND785//vHvwwQflQWbTpo3upZdekk3e2ZezMzqFypJUF7KYOnWKvEKTlptXS2LibwEqGqZRnpoX4KSdLC5WtUuyTzpWK1nxhSS5C4/Fj4fkaYRwE+a/COo3jWr27fBR8+5y+VpJS970aDyhSaJo/oqSFXccSUuV9BpGXsrUIXp+Rgwf7kaMGO6GDRvSbu5knKzwqcvxehxevwjIw4eP+M9TEicrm9nMOaTR12ZZNF9hHsO0spiId26vXr1axAEbc99///2SP0YP4mVitKHlyTQABCXzKOmtozzfeecdWaxVbTi4q8o0qS6kgRvqAqv6ebgAdlBgFbuCmyJhGrVRs5jMS9LJ1GPxzySS7LSidBb1iCsrjw3LS0acUGu8WXkqS9kg2+ck9quT64vR89FpF5G4OyzmiHwekoUjcuxQZNg2KM9+eFlo/UUUED7DmAxr0ivJApzuDOXIW03oReOd2ywuokeS3kheo9dT3zXeCBDelNn8+fNlXuGePXtlJTz7dDLHsNkX5cTTxu/4MeoCK7vHjRsrQ/i7d++RBUdG15B7zqRWvrwVsFE3bQ03T/i4CU2t5I2zVsIwtLz1WJJdrdQjzSGEh8lKXzzOtt986vf2w4OE11K5ecfnTCrxcJW042BzJo2y0MtDb8iO7dvdmk8+catXrZZ5jKtWrJTh2ZNeEO3bu9d9tmuX6+PrGcKPupY23y9+vUP8GL8Je+vWrdIzOXXqTV5wLZIeqNBfVp3vCuL5iKeVcmR+5AcffOhFzyZ3//33yTvO2faGOZJJ+Wm2PHYVlG28XPnkAWPYsOH+QeaMPICsW7fejRo1UoaIafeS5td2dZkSfzwNeixeh1hchIBkodaxY0dkVTuvmYQk90bj6LSeyXqhlaMajag8eeOuJ73hImhcHjuer644h0bPhYdsehxZLPLG62+4ZW+95T547z338UcfueUffOBef/112R9x2bJlbu+evaV6Jrk+wmsE/9xA6fVkmI9VrQjUZm8r4vlQ6KxgOJuFFPRIUp6sSJ47d54sqqD3KUn0GBFp9YkyYwh4+vTp7u6773FTpkyVOsNDyKZNm0SAdUfCOsTc2RtvnCR7bdKTHeaJcrH2vvOoyxWa1EDUchK10UkKF6qFXS09WeFn2UGeCqpussLJIh5+mTCSSEtPtfwkoWGFplZqDSP0H8+TnhPDqIV4PUII0TvJfK1XX3vNvf/++3KjpieSvf4Qkq+++qrMVztw8IDc4LPquV5LWXUVO11wwDAwvTHa05nkLyusZgCBzfA2r598++23pRfym9/8pheTt4tYzrs6l3w2e17rDfkN60yYf/0+duwY99BDD8rWQdQX6ir1MZxf2F2IXzsDBvSXXRMY6qb3VV8jGTdG46lZTMZPbjNQrTKFv8umPx5mdyCpLMqiYYWmLKHf8HwUOjeB21rSYhhZUCfDeknPCPPTJkyY6MaOGSNTJXwFrNh6sdnS0jqncZy/keu2LdVIq/sIL97BzVtg2IYIITlhwoTWMJP8FbqOugB6JZknyTAsc/wWLJjvbrllpgzRFumRjJ+b3obmX9tjLQvKkLcjzZw5w33pS1+UFd88iDDnlhXeuh9qd4Q8smPC4MGDJM/sN7n0raXu9ddelwcTpoOQVx76jMZSs5is9catF0BnE6Y7b/xhWsumWcOIh1XN9HTi56NsnuP1MSzDWsI1eifUp6w2TsUkixx0EQw3b3oK+3szoH9/EZmstkb4ITZr2R+R/RcZBj5z5qx8J25MrXsudhXMf+ZmT28uovLee++VV0LS29STNl/vbOLtXN++fWSe5BNPPO5uvnmaCMj9+/fLm2N4OFGx1azlGqaLT9JLLyQ92mfOnHYXLlyQ62HH9h3u1VdecS+++KJ784033NYtW+UhpTsL5u5CzWISkipf0k07fiyvmyR3WrnS4k7yEyfJr5JlVy1sjT8tfdUo46eZyJPvJPvoWPvjecLKSz3DMnoHaW2J1iPsGIZlUQOvsmN+Xzgvkk+OTZ061Q3zn0WJ11duoGxSThwMBzMnjvDT0hj330wgCOg5+uijj9yePXtEmKuQDInngd9p56W3QRnEz3NauVBPEejMQ+XhhtXdb731lrzXGjHWzOUapgvRyO4J7733nvvRj37k/uov/9I998yzbs/uPTK1ZOnSpd7uXXlj0qnTp1rzZTSWuojJMiSd3Hqf8DzhhRehknSsXoRh6/dqxzoDyqoZLrjS2U7w2Az5MXo21DF6InlH8JSpU2T7GkQS1y923MB1EcTIEbVv3UOv5P79B3wc16UXFCHJEGa8rnd2+5EH0qTpIh/0irFVDQKAcmL4FdHd3bc46mzytnPUUwQ7ZYyYRJTt3LlTVtDv3r1beoY51uxwfdHTyIKtVatWuXfefkc+Txw/7o4eOSJzQhGWRw4fcVevXM1dPkZtdJmYzEPeBpHKElaY0J/apRnAvf7OG2ctEEc8nqxj8eONJF42SYRuQlOWuP+y+cZ9VnqiY+XTaRhKvH4NGTrE3ThpkhvuxSR2WhcHDRniJkycKK8AHD16VMV1RJ76rWGpW1arsmcgx1lMMXDgIBEJIeoWNxglT3yNJEwPvWGs3F6zZo0Mc/MqSDbYRuzECfMA8d9G9TIJ6xBvaaJ38vbbeUPTEOmdXL58ucyhpIcSQvddRVr8PHgw9xjDXpPnzp+Tnkp662V+qD822D9gMaVk0OBBUqeszjSehonJahUxr71+Fq0M1cIvQ5EwGxF/T4Wy6rzysvNi1B9uXMyJpGeSm901X5/7+k/mMzJsO3nKFNnvr1aYK8lcN26iE71IZeFBnLS2shluqMxxQ0CyFyevS6QXcsmSJSJs6JnsrnM/m53w3COu6C1HvN95551Sb6lTvHaRnmLmGCLMmlWAUUeo/wjie+65x02ZPMUN0YVv1665vj7d/fy1Rz4RllyPRuOpWUxS4cpWujQBkXa8aDwqUrJMUfL4VbusslG70ChJx/KS5i9vWNe9M5+7wmVT1H01SG6Z/IeQJD1XagyjXoR1CjGJcBw5coTcxBiK4yaG4GNxzoSJE6T3EtRftfodusPwneFh5kzSo4RIZYg7CXWPaSbYjoaeMFbaMrzKcCvbAPG2FrYBiveyGvVD6wRQfxCSjz76qLv77rulZ+/v//7vZf4q9YuFUV1N2vXBcQQlvdlf+tKX5EGEfSZBp5ggKLn+EJ18poVl1I+ar9wiDVaSu9B/Wlh6PMkOsuziUKmSTBrV7OOE6ciT5tBe40myU+J28fSl+QN1G7pXWv2lhJuG+svrPi9RUjrmIyuGrPiz0kcsagwjL2GdQkDSKzl4cPQ+buoSNzJWeI8dN1bcKPG6mFTPIXSHG+aJXbp0UVavDho4wI0eNdoN6N9xWFiJx9OVXLx4Sd5q89FHH7v16ze60aPHuG9/+9tu7ty5ImwQB6Q1rSyM+qBlrOVMnUWMIShZSc/cyRdeeEHej86DSzOfD+qMpH/eXHfrnDnRiIAXk8A1yO9B/iGP69BoPKXEZD0aqKyGrh7h15t6pSkp3+EFWySehpQTSQnaj6JxNCRNdaUtfaS1+dNrdAcQkwzZIoy4idEzQm8lvZJjx46ruCoPN0mGHtnG5dy5s9IjyRzM/gO6bggvFCVZsKn7iRPH3dq167yQ3CAihUUgjz/+uCxMIi/WI9k1MO+QXQhYRX///ffLnMnVq1fLVk0MfbMgR89x3vPdWSAmWYDG6xMxQ3nlJg9yPo2069gPGpgwZzJ2jzPqQ6krOKtCxW/OaTfrrIpZtsISV9zE0XjTTBJpdmnuoVr88TTq8TDM0E1olCQ/ELpRQrdx92WIhxOGHU9vUnryUNR/mJ44mjb/LTpgGHVEeyaHDR/mBntBOdALJG500jM5NhqCSyNP/UZMMvTIilvMoEED3SjEpBeuXUF4nVfj4MFDXkiul0UeLLZ58skn3X333Sfz9rTXSK9Pwmu7Vo16k3TeOMZDD2KSt+Qwh5Jtd3hLDpvjq6DMOt9ddc507uS8eXOj7be8oCS9Mme5X183YOCAjtcIWahebY2CNPRxMK3idRb1qtxF8xG6b0QZZIVZ7/jKlGFXNCpF0XLqDmk1mh9uWPRKMu9v7LhxclNDXLKoZJQXTbXCEDd7TNLLRy8egpVeJXpfOpu81wxpRYzQy7VixQoZokdcL1p0p7yNhR7JMP16TTaizTSy0Qcf5iHOmzdPHlx4veWqVaulh5JzXu28d8V547pjdfq0aTfLvNvxEya4q5UNyvv17Vcx1uvdGdS9lDvr5kzFVaNohc+q+En+8hD6K+q3FtLylJSGeqYrHl9I2vGQPG6qoWlICys8H2rykNedYeRFhtS8OGK7Hnp5EJUjRo5wE26cKN+TKHKN0NvCtkCISm78CMmuGB4mzXmvNXpQESIs6uCd5TfffLN79NFHvJCcKWUS5j8enl2jjYFyjbepWtZ88jrLRx55xM2aNcudPn3GPfvsc27Dho2tfkJ/IV11vogXQTl+wni3aPFiGbJvuXatdc4k002ElHQb9SNXS6QVKK0ipZFV+bo7WReP5jsr/9XsIckuy1+WXVcQpqOWxqZIWYfG20aODKMToJ6O9CKJbYAmeUFJLwnzKNMWABS5Jq5ebXFnz57zYvJa6/56CNharqtGw16S7777rrtw4bybPftWmZd3yy2z3LBhXdOjamRDXWKeL73pDHnT08ccSjaX3759u8x1bcb6RppYjDZ//jw3y9cvHuh40OK4Gv+n4tpoFNb/WwPtKmsdqHd4jaJI+iJRF1HEH06rlUUYtmF0Jml1b+TIUW7K1JvcTdNukpsyw93MpyxD20MRw9xX3blz50VMDh481Ic50PXt2/liMk98pJmeVEQIc+/I//333+fF5HyZ16blkRZWmG+j8cTLmwcgVnYvWrTIjRgxXOa5sv8ke4TqammlWc4VowCz58zxDyu3ysgA1x3oPYSa1ixp7al0qpisV8MXD6de4SahFTBuGkE8/Dz5kguljuUamjjh8ST7PJT1V4QwnUk06vwZvYe0+sV+d6xQZv9EhtzivZJF6l5YjxneppeIT51rmFHFuxSG43nvM0PclAfb/7D1DD1G1SjS9hnFoXzDegXx38AQ8fTpN7uvfvWrbvjwYfK6Ql5TyBxYdhVQkvx2BQxrc61N8w9xbGTOnq9t15rVpc4gl5jUylKPSlNrGGn+O7tC1yJIyqQ1yU9WOJ1RHmXjyOOvbPG2Dzs9HrtpGY2AuYDMDZw9e458coPTulZLm8EwN8PF9FAOHDig0+dKJkF+wjzxHSFJj+TatWvd8ePHW4X1jBkzWnuLqmHXZNdD/WJV9913LxFhxrlk70kW5dBDyeKqZoI6gwBmEREPLjzIMR2EfEg9rbgxGkepFomToiZOnhNWzU2affx4vDErSxgu39VUQ+NPSkNWGLgvEg/E4wj9qV3SsThZcSbFEZok0o7HIeww/Dz+1E88XUqYNjWGUW/S6l8So0aNlN4R9r1DQDEHjXpJGEXqaBgn3695EXnpwgX/2SJisl+/6CbZlWh+NB30WO3cudOtXLlSXpXIimC2AOIGnxcNr6vz1puIl7XWUd3uatq0abIgh1X5r7/+usyfpIeyGc8R78G/Y9GdspH5TTdPcwP8w1zLtWh1N+S9/ozidMnjbZ5KWOSkl2l8GnkhhGlPy0cYfy0VvJ75KJuOLH9xuzLpLV8+jTvHRu+gaH2lJ5J5ZuPGjZUh3nosNPGSTbY7OXf+vBdsV9xAmS/Z+U03ZcEwO69E3LNnjyzI0CHPw4cPS28k79ymB2vChAlu9uzZ0jPJHLwi1NIeGvWDOoagpJePVy8yF5FN8z/88EMZ9qYeMPWimaA3krnKbG/EyvTh/lq0+tQ51L1F0sY36QRiV6RxLipEcB83cYqmISQr3DKE6UhLaxpJ+ciTryR/aXlSt1kmi7RyquYP8JqWLiWelriJUy08w6gF6hz1i+E2eiQxKvqK1ru4+5arXkx68XblMmJygOyd19l1Wd/C89lnn8mcSBZmqJikR/KNN96Qd24zV/LBBx90Dz/8sAyVUg6Qdl1C3M6u08aQVK7VyppFUyzI4XzyPnjerf7mm2/KHEre6d0sUH+49tg6i3m6bMDOA1344JVW/4za6ffnnsr3VGhEeCKNr+RqBPGKnVX5q10EZUkLNzzeqLibgXrmLassk+04psejC1/d0RDom0C4iXX0rX7VtEfDCeMmTBobFQBDhw6R44ZB3dC6ot+zCOtVNbchSWFT88MjCLctW7bI3o24vXX2bDd50uT2jhrMpYsXZXjzjdffcMveXuZOnDjhjh49KmnjFXwITPaQZM4aPUNsJk3PVlgmaeWSZWc0HuogJJ0DjtFGRttR9XeX/QMNPZKbN2+VbZ5YWEX72dXbPWna+SQttOcsViNtZR/qjPwU7pnUStcY0huakDANRSsH7kOTRN48Fo0bsuJNstNjcbu0Y/Wgnue4Wlh50pwrPVIW8hGY6mEbRl7qeV0UhZvjIH9z5C078v5vuXF3bnoY4jx+jHdsr5WeqZdfftm98sorbunSpW7Dhg3utBea7E2oPVjcyI3mJ0+9pv7Ry3zbbXPcAw884EaMGOmWL//QrVu3XnqqmfLQGZ1N1dA2n2uEHkoEcNgzaTSOQj2TVDoMJ0xNNtinuGlnpT9Ct8kVPCvOuF319LWnmnu1l4svV9i4iRvomLcwbr6ryULti7gNSTumx/V73F38NyS5jf+O02bHpxqO8zcsoygc3rfK2w3oIaFnsl0pEpf/0IZRw66WBrCeSSOJsN7kqUdlSQq33RH/42oLPfF93LjxN4hQu/nmabJBelm0HS8CvZA7d+6SeZHbt25zF86fd0cPH3K7duyUeZFL7l7iFi9a5KZWtkRqVHkZ9UXrdp7zhahkkRluL126LL3TiEnmyLKTAe1oV5/3MP68+TJqJ7dkL39C0vzFj+vvrjnxxfPXURDmI1tIZqFCSYn/7irK1g3S35aFamFgH7lJzHXOsmiWMjOMIrCtzoyZM2RRy62zb61JSJaF+XHRPLlT7uqVK+70yZPuwP4Dbsf27e74sWNyYV72x9k2phl6qYz6Q28zwjHqobzf/x4oC67WrVsnn/Re27nvneTumVST9kTLMTVtqABofwMXN+1u6uouAuukONLoGG9x8vivNY4QTXMYZlmho2Ek+c9Kc5Jd0fRkha9kuSGKNnvio0yiXwr2mOvXop5JblY68T8NDTOeh6S0WM+k0cxQh6mfrFSlBxATvi6uDFn+iC/JfuuWre79996TXskTx49LmrQnipGrU15sDhs2XFbQsqWM9U52f9LqAg83LMzhAYOV/KzuP3funGwhRDva1fMnjc6nbpMJ8ggPJdktxyKDdZHwuhtJF2ct+cVvGf9JfvRY+fSQt/YmCqrj8ci0J+neg/+k9KTdqPR46SwYRhNBfdYFEGq4WafV/3rDwxvDmQgGXquHgCD+1rloPh1sZE3P1KeffiqfLBQq34YYzQ51cPTo0fK+dd44w0KrvXv3ypZBfBq9j9xiMk/DgJuO7pL90RC2GY7wBCTtknyHpMZS/dSDeoaVRRhHUnzN1uiWSU/kh7wVM336aBXMmsNF2Goi1G2rH//J9/QwIrdZ9oZhRNdJ6xXnr2uGLg8ePOh27ozEIgtttEcSN8xlPn/hguw7uHPXTplDhx+j+1OtvWTV/uc+9zmZx8tK//fff182NafeqDF6B4V7JsPKxfe0ypZ0PDwWr2TYxStfkpsk6lFh43En0d4NaelossojzGNoyqDhqUkjK/wsf3kJ81AkP21p53vHtLTZt8+fftO48sYHRd0bRjPR6XWX+Py1h3j8ZPVqt23rVln8duXqVRnWvnLlilyPrJq944473G/99m+73/6t3xZxwXYx8Wva6HnQO83Cm8cee0y2hLp48ZI7dOiQ9E7SOw1Z7a61xz2HXGKy/AnHX7rfeLhtjQ+f7U1kp8b/bfc7OgZ5G7D6NHRh/G1pbBe2ftePipvipo2ktMeP8TsrLnWf5aa4aYNg29LQnvaHOvqNE4VT2aQZk9A4JYdQtt4aRtdAvW6GGyzXE+m4eOGCO3jwkFvzySdu546d7srly2LHvDg2hGbl9m233+7uf/AB9+WvfNk99rnH3MKFC2XOZNK1b/QsOMc8THDOMQx9nzx5Sl69eODAAZlHyYOH0fPp4xuMqi0XT6CYcOPysKEIg9DjHEv6DuqeY2raw289RuOK28rPdrJB4+WYfm9LS2MJ0xiHNPh089U7aXPlv/mDQXEJUd7SwoJKeEG5JZFkf/16stswiHh6oqT48yI/IDoHqVTc404ddsxTWxgpyc8gEpPUP1aLMpwSzslKKo/ksqgkIIBjzP/i5jh69Ch3w7ixFRvD6Dqol2nXeWfBXMnduz5zH3zwvvuHn/2D28bCm5MnZDNyXq03f8GC6JWJM2fIYgyGOhGRXEtGzyOtveU4uoBpDtu2bZOV3Wywv2jRIplTecstt0i9MHo2ucQkK2cx3MxD51SquPekY2ngDhOtFA/8SGWtVNh4WGFFVjs5xnd1y2f7Cl93VKRpehLSoqlpS4m6jT7aIVZtLtvjPcTLAdR5UnitpIVZhaRyzgL34i5wG0adFUQ8H334Ujnov0aNVx9Zyc1DDRvkMidL61nSTTfJLqlecszEpNFsUC+T6nVnQfxnz5xxby972735xhvu1VdecWfPnXNDhg6VHqgFCxe4+fPmy3ZFk7ywpHeKjaKNnk1WvaRNZnEW7+5+7733ZMeBKVOmuIceekje72291T2bXGISsae9kuo86SZd7cYdhzB5NR4C4fLlqwRQsSmBeCXO6vG2x3tM6b3r7tSSq8RSjDUk6SWNTcnYRUhGIUd9o95UIpJNy4M6k1TvlDx2wHcTk0Yzk1WX60kYD+8CP3rkiPvhD3/oXnn5Zffppk1u1OjR8hrHb/3Wb8lwNvMi2a5IV3Y3On1Gc5BWHzmORmABFqv+X3jhBXf8+HH3m7/5m/KebF61SV0xeia5xCROQgNhRco6lkXUy3ROhiwvXLwUyY+aGqTqcbbSGo3/UsBbd6RaiWr2Q3ddWyRtsbcbbKf++U96yWm06gFhmpg0mpWktrUzYO/ArVu2iJhcvXKVvMpx/vz57v4H7neLFi+W4W1977FhhOjek2+88Yas/mcbIYa7n3jiCVmswwOI0fPIJSYbBSu/mKx75swZGbqUBjOl0Ux6CqoVDbNRRZAUftpNIZ6G0F219FXLRzxO3KWFXy2sWomnBTSupLjDY/o9KYyyEK6JSaMZiV8XSngtNALC513bH330kfunf/wnmQu35K67pDfyic9/XsQA10tnp8toPtLqKB1F1KEVK1a4V1991c2YMcP93u/9nsyttZX+PZNOEZNpjYyKSYRkKCbjbqMkcjz6DWGyk913pFoFTkunkmSvcenxpHQlHStKGEZIGF4eN0nE8wBpYcWJh52U16RjIUnx1wvCzMoLdiYmjWaGOtqIayMJWeR2+bJ75513ZM/ACxcuuHH+5s+2LwgC5kfSG5l3uLIz0250HfHzzMgRG9kz5L18+XKZL7l48WI3ceJEEZNGz6NpxCRbCHhH4i7uNkwidvEkh+6rZScpHaD+0uwhyU38WBg/x5LSkxVHGknhKGnxhKTFGfeXJ6yQeLih36JhKWGY6j/tWLXwq7nBzsSk0cwkXQONAiHJtCMWUaxdu9ZNmzZNVuPedtttssimKKS9M9JtdC1pdZQhbzYxhxtuuMG3saNtZXcPpTmGuStikoqoJo2k5Kr7uF3acSW0T4szya5IGvKQFbcSuqkWR2ta5E/HMNQ/v9PCSktTUeLhF8lHvUnKE2lg8YCJSaMs4fUE/I7XtaRjWRR1Xy9Ykcu0o2PHjslDPj1JCABdaGMYRaCnm95t4JWL8V7trqrnRv0p/AaczkAb57zgPstPWmUN/SX5T7JLcgccT7MrQ9mwwrzGc13vNNZKZzcizZR3o+dAPe4pN0Ru9CysmTBhggxr80lPkglJowzUG3q0MdQrq0c9l6YUk6DCpxYBEPrVBj+r0Q/jjMebdKw70Jk3ubDs4uWVVvZ501fEXZbbME2GUZasehTWP70Okuqk2oVkuc9DPLyi0Hs0cuRIebsNc9tYiWsYjaJsPa838Wsx/huSjhltNK2YDNGTWI8TmRQGFbrelVrDDE0txMsgKXxM3F0WedwUgfiTiB/Pmz5F/aeFr1SzN4x6kVTX4nWa37hLq5d6XK+Hau7zUIvfEE1HvcIzujfxul1vGh1+NarV9Xpcmz2dbiEmq5H3JFersNXCyBtPmps8fuuJ5lfjzZv+WugYfvvf4TnI04DEw2t0+g0jCepqnvqq5HWbVZ+LxplFPcMyjCJUrXtNXi3tuslHjxCTcWig1ShJFSLuJomksJSk40nu6oHGpeHrBRo3EHcL4fcs4v7KoGFEpnIwBU1zNcI8huGHhG4Mo55ofcuqW2F9TKqfaSS5C+t5Gkl1PSl9ecMyjDTCuqP1ri51phKEr53Rly4kzI9eLxyrdu0YET1CTNatYuegLZ62ytVMFa1aWjqrnJKoV8xhHoqXvTUKRvNhNyvDMLoz3UJM0tCqyUOSYEoKA3dxE6eafRahH/4W9V9v4vGHZaFlo2kuY9Jotc9wA5qG0KSRFV9IxzArFoZRAK3DYZ1srdd1Igw7Tzxap0P4HXcfd5NEkj/DSELrXVivsuqOuk20Jwg1XUyYHyXpmJFMr1qAU48wsohXPL2IhDqlvVr6s9w1+sJIirNaepUyaUvLp2HUm7T62ehrCoijSDxF3Stl/RkGWN3p3TT9puVlkxev2EnhqJssO6hmn4esfCSFVS3fafHH/WWFjV34HarFm4cwzqz0xOOuRlrawnwkkRU+/mzTciMvYT3TesUxXh+HyaqH1DOM+stb7+MQh9b5MF49rnGE6QnjDuNVP9XQcPK4NXoeafUkXi/4Tb1js3KlWh2jXrL/ZGfXrbx1Oq+73k5Tisk4eqxIUuPhJPkN3YT21fwmpTEv1dKhZLlLsgspkj4NK/RTLfyyVEsX8eZJe5i+POnOChM/NGYmJo0y6Bs+9u3b5zZv3iyvI7zub6a+JRN76le//v3dwIED3I2TJskbZXit3JAhQ3LXd0XrN374funSJXfo4EG3d89eeQfypcuXXP8BA9yCBQtkk+hdu3bJ6+xwN336dHk1IntHEreSJw1F02n0PqgjV65ckVdx7tq5023fvkNEpbegwvI/ovIFO+oUbS/1cvbs2VIvu2Jf06z6bXU/P00vJuO/iyQ39JvkL8k+Hh/E/Sa5yUu1dChZcSaFoZRJG+HlDb8sedKl8VZzm+UuKe1Z4eHexKRRFsTjqVOn3IoVK9wrr7zizp89JwJT6xw3TTYC5yY5Y+YMN+uWW9zcuXPdjTfeWPgVhWG9J45jR4+5FR9/7NasWePWr1/vWq61uBEjR7qvfvWrsun422+/LSKX1yM+9NBD7t5773UzZ86U1yMqhFnt+oAsN4ZBPUFI8hrOd99+xy1dulTqKA9W0iPujc6LpEpRV/nJw899997nvvilL0q9HDZsWOSowZBeSZ//xHAdJl2L2Fndz0dTi8kiJzHKRXpWwrBqzbKGFYZTLfwkP0pSPuPu8qY/KawiZIWdB+Ivm/YQ9RO6jx9LymueuOPHTEwaZaHX7/Dhw+7VV191f/M3f+POnDrtrl29KnWM2nbN1y8dbh4zdqybPv1m9/gTT7h77rlHRCWvmCsKYdFebt261f34754SIXvgwAHpdZzhxeJvfetbbvCQIe4nf/8T6S09efKk+5Y/9pWvfMUtXLhQXpFYFOJMut4MQ+Ghav/+/e4ff/4L97Of/rRVrCHS+vbr6/r26SvXQ8v1a+6qv0Z8S+wGejH59W98w33ve99148dPcKN8G9wZED/il95Urk968sMe+xDyAFb/s+nyBTixW3/FlCDDW7wS1KNSaAVT2v/qSNx9SJadkscN5HWXRC1+lVrzmYe085cndGsQjHpCncZcvHjRnTx+wp3zD8bXfEWcPGWKu92Lxdtuv016IeGQF3zr1613yz/80G3YsEEEITfcMnAjPHrkqNu1a6fbu2ePO3PmtIjJ+fPnuxsn3ShD6bNmzRLBioCcetNN8prE/gP6V0IwjPqCaKQH/obxN7iZvu7RCz912k3SA3/50mV35MgRmXZxreWaf6CZ6OvnTO9upv8+3ovKgSI4k6jprhHzjIjct3ef+2T1avfGG2+4FR+vEAHMtZiG3TPy0e/PPZXvnc7Vqy3SO8lQEU8InLQ+/umlbPWJ/Hc0SWTZGZ1LeK7i5yXpGPA7rzhVv/EwFI73799feieHDk1+OjWMJLSHY/vWbW7VyhVuyNBh7qZp09xXvvZV9/kvPOnuuPNOGb675Ns53J04flyEHz0hC++4Q4b1qHtZaD0P6+8RLySZl/bR8g/dsaNH3eBBg90Tn/+8+63f/m25id/gb9CTJk3y4nKBW7Lkbolryk1T3MjhI3LFF79W2v3Wyy5+OYWXY/KlJoTXbdo1adROmXIOTyFU8xWvmwhKevgmT53iH2LucNNnzPAisb+7eOmS1P2Ro0e5m26e5h5/4nH3yKOPyvXBHN+pN02V9lfqpibCB8lX/7gmPySGwC4fFQ+V9DG/eeWKFe7NN990Lzz/gjvsBe7oMaNlWghGiV8DVk+r08U9k5Wqcl1XJPLZNo+hqCGMoiYpHDOda5LOSx6TFFaSSfIbGub1UPf8F3FvGEXxNU2aM4btRowYKQte5s2bJzfKe+651z3++ONu+s03y832wvkL7tSp09JLQ4+mQt2jpxLRedzfeJl/xiduqKfq5qp3w835wsUL4p4bHVM1+vfvJz2P9PAM9Tf0m6ZOdbfeequ77bbb3JTJk92IipCUMLwI5iGeYXr9PHvmrDt18pQMi5MGHaaMQ1pkrqhP/7Hjx9wRL2aZl3nl6hV3jeso475LeKRXTVL4Rn3QMoYWf844n5x3rUtJ4LqPPyViokOZhHFQt+mFZEHNXXfd5e5acpf0it90003+mhghaWCOJKLt9ttvd3fffbe4m+EFJwK09SHHB3e1JXpIO3nyhEwjYQgdISjttXeiRqENv3rlitRhekC5dri+6LDSnHAdHfV1lV7J5cuXux3bt3t3R+U4nVla37WOGsXo2p5JX2FYgXjZn8irV6J5Rn37ekMFZdJupaI2r2m7mPKZ7pCnWk3RMilrai1LmpioweDmO9DfhKOeyaFiD3qj09+GEYebs8xf3LJVFsMM8nWIYe1HHntEhpzplRw+bLgbPWqU2+5vXjt37pR5Y/QaLvA3Wuypc4i5c/7medrfNOlpPORvoAhJbqLEQV2kXRQh50Xb7s92u23btrlNGzaIm759+7lZt8ySniB6PRluvOZvpNRd7PjNinJu+IR3xt9oEYMnTpyQuBG49ByJiPXxX/JikbgQqbKAohK3+j3uRSS9Otycj584Ljd6buYIXS4brqnoOmu7drKuJz1mN/L6g4i76B88qKdnTp+RBwHO1RV/LkVAXeNRqK3ctV0UEk5F2nmMHmj6S/1jmgWmn697+/ftc7t373a7duxwo72Q5EHriSeecHfccYcbN26cuI8ecpzXApfd+XPnfZ0+6Y56QSh17MhRXz/P+3RfaU0nOyQAdRIxiIhk/QXiED8IScKRhzwPaaOe7vRpeOnFF91Kf61S/8fdMM5N8w9548ePF5Eb1nejGF26AEe3ErjgKwPDQCoQug9liq6nV9JOqk6+nmijV7wKt7mnsaHxGOAbJ27qNGzWkBh54UZGT8gLzz/v/vv//V/d0GHD3K2z57g//bM/dffdf5/UrXNnz4lQ+2//9b+6Z595xl3y7R4LcL73J9+XHhpuZOvWrnObNm1y271APH3mtL/JR71H1EVutPT2PHD//bJAgdr7/PMvurffXuZ2bN0q4g53s+fMcQvvvFOGEEeOGOk+eP99t//AAS8iLrh7773bLb5rsYRz9uxZfzNd4Tb6+BC39JiOGTtGBCU9OgcOHnCjvPidPGmyu/+B+yVcRC+9jwcPHnQffvCB27Rxk6zI5dIjbpYb9e/n0+nDunX2re6OOxd5oTC2rbepCmkCxagdepo3f7rZbdmyxZvN/lyOcePGjpVzyqKwG7ygGjt2nAz3MnexX//8OwxUY8+ePe75537tXn/tNff2smUyh/LOxYvdn/7pn8o1wPUBnH4ebJjPuHrVStnWCvHHg1C/AQNcy5WrMgWJuspD2uK77vJ1pa/U5VXePQvN9u3dK/Vn0JDBcl3CmFGjpT7ifuXKlbLDwSpf99lKiwefCRMn+gew6e7LX/6y7HgwZcoU6UWlPoZ1Mf7b6EiX9kwCJ4gGh6fmwYMHuUGDBssKx+Y3Aysmya6a6S55LGpqKZPiJqovRU37NA6uGL7Te5P35mcYQE8dD8Rb/Y16xUcfyzDeWC+iFi+5y02dOjXq5fDuuCnSG/Lpp5/KQzR7Tt5x5x3SG0JvITe5pW+9JTe848eORz3k3h89hJ960Xfk8GEZChw0cJB/4BkmwnPHjp3ulL8B09NEOzrKiwPinn7zdOkpfOmll9zHPk0s+uH45CmTpSeI3s/lHy5373uxiSHcIUOGSl64+TMESE8SPUMTJ04QscviHYYbWTj05htvygpyRAfD+uRxj3e/bu1a8UP+JjOs7m/KXFP5b8L0ZFa+GnUBiX7Ki8mN6zf4urDcvfnmW9JTyEPBQf+gcfjQIXf06DERcqdOn3InT52UhwbqD/WKnj+Qelzi5NBDSJ3fsX2H2+0F3Aj/kELP/WIvKBFuhBmFe919tuszt+aTNV54vurWrlnj69sR3x4P8A9GI2S3AvZT3b9/nxvo228W7zCaSX1747XX3bvvvO3WrVvnGAQfP2GC9LDjh9GAFl+vWYDGQhvq6SGfZ3oyYYgXnsxbZrHazV6o8hDFvQDi+S2T/95Ep4jJtKdOftOQcgPXmzmisnsY0lrWJIXXE0xSXhtpktJQzSSFM1D2AqQuah21J1EjD3ExST1CsN21ZInMFeMmzDDitZYW98EHH7gNGzeK2JrkhR03VHrCGZV57rlnRVByU2cF9nd+//ekZ3P2rbe6Tzdvlpvg+QvnvbjzN+K77vLxDPT1tb8MdzPMTRtKz8o3vvEN6Ym5cOGie/+999y+vXv8jfOMu+3226XHlE3Tz50/5zZu2CjD5IjGe++7193/wANukU8P9f6T1Z9E8ybPnZOeRoQhgpLenHffecetXbtOhh2/+Zu/4b705S+5+++/X4TImjVrRaSQzmk3TxOhzM05fh0lXVv85hC3CrWK7hrNTS0tRGflj55rFohtWL9eFp8cZ/jYPxhwPqkD1EkeEtatW+u2efG1d+9eEWMISs4L7SJTgCCtTUy7x58+hZjc7B98dkgdHunrw6TJk2SuJGJSRSr+eUBZtmyZ++D996R+0SP+hS98wX3jm98Qdwxhr/Z1s1+/vm7ObbfJiObBAwfdC8//2ovQT/x1dNE96K+BP/yjP5R6xwpy9l9lHQary+mV5zrY7UUrvZhM77jFX1+ff/LzMn/zlltukQerJOGsadTvRke6dJjbMJoFayiMMsSHuYcMHepF22z3J3/2pyKyZI7ilatyo/tP//E/ul/8/OfunL9JIza/9/3vibijB+i//pf/4t56a6mIQvah/O73vis3RHoR//Iv/8qtX7dOfv/O7/yO+673t23bdvfR8o/cU3/3t9L7wjSN7/ze77nf+/3fl+Flhv3+47//P6S3BrH5z373O+4bv/FNWRDBnEiG29lYeu3atT4d33df+/rXpGfmnbffcf/h3/976b0Z4B+yfvc733Ff+OIX3J133im9nE//9KciSpj3+Wf//M9EFDC0/8yvfuXtnhaRMvHGG90f/uEfukceecQtWLhAyiCEaw0RTtkhaPBjd6F8aDFltVK4UXvaM4ThWi+2Vq1c6c/hR3I+9JywNoHvPFAjGNn0ftSokf5BYKzMJ7zBP0TwUIRB/PFQQT3MO4KzZ/ce9+yzz7o3Xn/dvesflqZ6QXfn4kXu+77OMcxN3KSRuZs/e/pn3u1z7uMPP5CHrId8/fn8k0+6JV7ovffOu1JfX3vtVZlr+f0//RN3442T5EHuv/zn/yzbbVGvvvzVr7hv/+7vynfq/aebPpUh/Xv8AxNzOJkr+v/7T/+nD+c1d9o/ZHGN/tbv/LZbtGiRiMmyPbCGr0u+0JvmMtak2Mk0Ohure0YZEESIoReff8H99/+aJiavuIsXLrr/8z/9J/ePv/iFLLS5y98gv/8n35eb5skTJ9zf/uhHMvSM/wcefEC2+GGomyHH5555VnpYWKz4+7//B+5//jf/s9u16zMRd3/z13/ttm7dIj2if/Q//A/e/JEMSW/auNH9x//Di8m162So8Xe+/bvu69/8hheTC2TRzLO/esa988470iOFKPzGN78pYpKh9v/9//O/uQMHD8qQ/be/87vuSX9D5wb+jhcDf/1Xf+0O7N/vBnnx8W0vNJnziTtu9K+8/LIMkzO8/Zu/9S1ZZPHgAw/KCvM4zHVD5Lz44otuxYqV7eaIAtejXYvlaC07b1i0RQ/csSOH5aHnqK+rCCYM7tQwnI3hwUZXNvf1gnHg4EEyBMzOBA8//LCILt6iRN3MA/WB+ouYpP7onMlQTAIPFz/6mx+6X/3ylzIsTq/2Aw8+KA9ds+fMdut9Pf7IC2H2hqTn/Z99+9tSJxHA/+U//1/Sq09v+pzb5ri7fbj00mM/ftwNUa9q30iwMl3kP/2H/+hefeUVd8pfWw89/JA8MOGWVeVGebp8zmQIF4A1IEZXYvXPKAI3QV3NTa8PvXnxYW4m+jPkxjD3Roa5W67KfEqG1riZ0kOy7pM1sviAm/+VK1elZ5BFLhu92GOIEPHFG0ToWbz33ntk5eo+L+pWr14lw5bEww0Rw5QhBCPD3ISDQJjrxQDDhvSEXrhw3m32N2yGuBHCSyo37JEjR7nPdu1y7737bhSfTxs9i/TYMM9t585d7mNWwZ48ISIXN6Rtw4b1bsunmyVOemBHjBguw4es2kWgkrY4Kl4QOtzsJ02aLCvcGVI3k24mVUySHUbsfDnqJ72JLLRhmsV5f744R0A7R/lTfzEISs4T54K5t2y6z+4ALHahfjAlY46vP9QDHoBUBFaDnvXNWzbLKmqZM+nrGJvqh8PcKmY/ZlGYvz54+GGeI3Xj8OFD0a4F/lpgmJz5n9ThWbNukWFr6kw/H4bMMfZ5uuSvM14hynxJ5kgSLg9a9LgCdZaFaSx0Yz4ye8KSR8JEwBrlaSoxaRhdSVxI0siBCUwjDRWTrJSVOZMVMclG4TdNu0nqDmKObUqiVdAbvbi8JkLznnvvlZspN096EFkYIe8w9nAjpccSO8Kgt4833LBoB8GImORmuXr16lYxycbk2CEIEA3vvfueiEXCmjcfMcnbeAIx6W/ubEEUicnbZKX4Z14wMqR49lxFTC5YKJugc7Nl5TeCmXlwDC9yo+bmfOL4CSkHFjIM94Yb/K1enCImVTAkwXFECcOmiBSGLUlf9MlvM3EzqWKS7FqNF2uU4SQ+/blA/F3wdZTpDTxAUJ8odwz1lYcPxBb1i7m806fPcPTwIbKoTzzA0APNeaXXmyHxPG0i7Sfb72zZvMWLyZ1S35gzSZqSxCRzJllYRp3nAQzYT5XFMsyhJE7yMsOnj95SrV/UH9KFPfM82Y2Aubs8SNGEcz3wClGx9w87zMlkbuhlHzZze+dVxCT5N8pjcyYNwzBKosPcbVsDDZceQIaOdWugkydOukP+5vYXP/iBe/7Xv3Ytvsl98KEH3f/4L/6F2LMY4CdP/ViEGsPcLLD54pe+5AYPGSyCjg2ZAbdsQs5bbXaIsPvYPfWjH8o7utl3j4UHf/hHfyQ9UcwVY+4jK6zpRfydb3/bfe0b3/SCc0E0Z5Jh7rffluHzP/Vp/fo3vyk31rffWur+/f/2/5UbMcPXv/t733FPfvELbqEXlQyB/8UP/kJu1MzR/OrXvyY3dd3zjzs3vaqke8rUKXKjnzwJwRAJj/DhjO8MO1J+iG29C+XQKEYVKMqoGKO/1L333nlHtudhhT+9eKNGjXZjbxgnDz43eMM8VxbG0LvJamgEGg8HCLFotf8Q6eFjriT1MBSTnEv9Hf/OMPevn/u1rLh+5+1lbop/iGLO5J/8yZ+0DnPjjoeRv/qrv3a/+uWv3LatW3z8I73gXOJunzdPHmau+wewlparvn5dlu2MeGMOW1fxnd5wHnCo1zt37XJbt211n3zyidvlBSwb6d+1+C6ZNsKrG0n/f/jf/717+eWXZUSA65A5lswJZvietECYPyMfXfwGHMMwjJ4D96Jr13hLTTR8SK8gvYQIPuas8ZvbFPv56U16sDesUBX/3rBQgLeH3HvffW6J/+SGz02QeYpsldKnIs6gosESFmRgo7bhtxjc/OVf5WflEzgmofg/fCIaSS+ryAf5zzlzbpPeVVaC00vEcYQGApjtzwb0H9guXdyg9SbNJ3mip4keobFjx8jCoei7mVoMC06i72MqJlpMM8mL+1m33OofKO6Uc/a5zz3unvzCF9znvWHRF6835Dg91WyoP3v2bBlKZtEN54kezLiQzKLVnQi0sGa1R+uF7qzBu7upS7zjm7c33evrGKu32ROS4whQFn2xGTu94lxbDIWz4IZe28997nPuXi9Up3nheujgIZkXTE88e72SfvYWjt56FtX9Inky0jExaRiGUSd4LaeIyMq7uBkC371ntyweYM4XPXH+zuUG+huzDAv7m/QIb+j1ue6uyVwx9m+kZ4geI/Z/XLNmjXv5pZfdsqXLZO4Zt73oBiwRtpr47TA6HC2wkB8ZN/QQ8dPObeR34MBBbsSIUf7m28+n85obOnSYFyrjZAjxoL9pv/Tiy+7ZZ3/tXnv1dX+D3+5O+pt7+3DSsZt57bSe6xgsgBo1Zoxsi/OFL31Jeqn/H9/9rvvj733P/cEf/KH7+je+IT10DGUzTE7PJYItiaTzxDGNO24vVZR/rWnrmD78IOiGDB7ihsnCnutyHXgP/vcQN3bMaHfu7Fm3acMm6dlnx4Ejh4849qFkJ4Nf/OIf3Q9+8N/d3/7t38oc3jmz57gH7n9AHsaG+/CYLoI7FnwRJmIVISo9/j5uHmo03XxqfoximJg0DMOoA9f9/Yi5hnu8eGSV8g//5ofuRz/8oXuO7U4+/tid8TfE8RMnts5BYx4kopFhxWg/xykyZ5LtchiSREC+/uqrsqUL8yMRBfTcRDfmaAHLVTEtYrhBKmzdwxtqsL/SEtnhnpsp/nmHNsciu+idxLyPmU8J0x9noRBD0fS0ogEYepx1y0w3fMQwd/rMKZ+nj2RV7CsvveTef/ddWYhz+NBBd/XKZTd0yGAvDqK9CY3OQYVQHMQhK5Xvvudu2ReU6Rdz5sz29W2SGzN2tBs5coQ82NDz2DqMXfGbl7S4kWTUqRYesqReRe8Il/oWuOf7pMk3ykpthtypm1u3bpPrhukVy5YtlTfdIAjxxdzcIYMHiT8W+bDfKttcsciNnQWYS8x+mcwJ5WGHBW9ca/SuM2+TOaKkjSkAK1eslA3TGSpnGy9JT+ESMExMGoZh1AA3NG5SDP1yEzxy5LCIwR8/9ZQ3P5bv9Iww/MvK6Pvuu8/dccdCEZMYbnZsJ8Sm4vzev2+/e+XlV9yvn3tOBOW2LVtleyGG+XjlncTpDXMRBwwc4AZ4EYAhDXqDRhDwGroBgwbK9i70durcRU1vPy9OsSddCj1S/X2Y/f1NGP/8ZoU5sNqVhRnjJ4yXdygzx5OeIsQyiydYeYvT0aNHySv6WNWt6TG6DqYmICZZkf3YY4+6+fPnORY68faX8Pw04lxpXWP+LfWQ+qqCNQR3CD4Wis2YNVOmfrBYiHnBr77yqmyWr1tgjR0XzfVk0Q2vWGReZ3TdHZFefN69/d5770kvJcKROZe3z41eW4r/CT7vrHYfOmyoiNPVK1fJLgYMk7MtkqhMq7aFsQU4hmEYGcR7UUK4+bDAhYUsvL2D/STpAWydh+X/c/PktYO8vYaVtlOnTJHeF+ZGItYIg3cRM4TNFkPc4JhbSTjYMxTOgoMFCxa4Kf6Gy430sL9x7tq1073/3vtyEyU+RCp7WyIeWCTzyiuvyDYprHBlHhw9oqwiZwU2N11WoGP/6KOPyqpdwmWzc1mccPq0xI0/3siDPxbKkDaEI3PQGLKnl4leHG7SIlpmzvRmhsyhpCeInlSj96HXDPWFusYqbeobDyTMw2RDewSuikrcU+dYzMY+kwhJXvfI/qM8zFAXWVjGdkUzZ2Jmytxh6javG2UT/892fyYrtBGDhEt95DqjLjL/kwcxrkXqOOnhFZNcC8A1wApz5pYiZI3imJg0DMPIIEtMIvgQfgg6Vq4iDHGvBn8MH3JjoweSxRAILG6OYZi4ZX4lvZIHDuyX18QRFkPbbIWCiGT7Enp24Oz5c7JJ8/69+2RuJjdP3WsQYUdY9MwgdJnDyVw44qc3h3BZrc2NnpspQpGw6eHhGP5koZBPH9vBIHrxR5qBIXc1bNvC6+omjJ8Qrd6eOkUEQ1p5Gb0DrfuIPQQii9CoW1wH1CXqHOJQ64m6p65Sd6mfXE9se0Udow6y9yXD4Dxc4RaDP+oqryGlPjJsffTIUbnmWOnN3pgs5NF9KHFP/WcxDu+257pl70oW+iBuR44aKfOZjeKYmDQMwygJzSeCkhsUNzV+x5tUhB4GkYfhu97Y+FTo5SMMNji/fPmSzHvEnoUJgwYPEhGq7pnTePVqFCcLCjiOva64JSxu5Do/DTvipmeG3/jjxo09IhJ7/JEP/Mn8Sg/hqT+NG7+SzsuXXctVH77/x+r0gYOi+HFvGNQzvTbUUMeoS9Q5PuPghzpJ3aKO4YffbEWFyEMUxv0Rhyx6q9TJK5eJp48MrQ/14pV5k/ogBJometZxy/ZBw4YOE6EbTQdJnv1H2iC8Zo02TEwahmF0EjS3ejOq5eYU+az4DyZ4heFnkSfuvGEZRhK11O96Uq0eWz2vD7YAxzAMowrccPTmmEU1d2VuWklhEgoiMhSSkDd83GE6I62GkUbZ+lLETy313Opyfqxn0jAMIyc0l9VEVtikqttEf2HLG7fKiCdPGgzDMDoT65k0DMOoI80q9EKRWwuEU6+wDCMPReuc1dHOx3omDcMwugCaXhmmTtGe2jR3ljiV9BSIq6h7o/eRVUdqqT95/eJOCd2H/vOEVUtaewvWM2kYhtFVZNyf7OZl9FRCkdfZdGXcPRnrmTQMw6iCNpONFnh54sFNkXQUdV8L8fR3ZtxG9yNP/QjdxOtXEVr96hNcRhBJ6aol7t6A9UwahmFUgRtIkZsINx69+RSlO9+sipaTYRShlrrVzm+JYKxuZ2M9k4ZhGHWmaC9GUfeG0Z2ptb7j366V5sLEpGEYRp0xcWgYRm/CxKRhGIZhAtgwjNLYnEnDMIxeDkISEZlXSObtg7C+CsPoHZiYNAzDMHJjAtEwjDg2zG0YhmG0wi0h3kMZ3iZsGNwwjDgmJg3DMIyq6I3CpKRhGHFsmNswDMOoSh4RSd9E2D9hfRWG0TuwnknDMIxeBs1+vYarw1uIhqnHbEjcMHoH1jNpGIZhdABBeO3aNTF8D0VjHkxIGkbvwXomDcMwjHaoeLx69ap89uvXz/Xt21dMHL2FIB7D74Zh9B5MTBqGYRjt4LZAj+SZM2fciRMn3MGDB0VIDh823E28caIbM2aM/I4LSL6bkDSM3oeJScMwDKMD9EoiIjdt2uSWLVvm+nqROOnGSe7+B+53t8+d6wYMGNCup9KEpGH0Xvr9uafy3TAMwzBaQSxeuXLFnTp1yu3Zs8d9+MGH7tDhQ+7A/gPuxMkTYjd48GDXx7vr26+fbRtkGL0UE5OGYRhGB+hlHDhwoAjKS5cuuW3btrmlS5e6QwcOuv3797lz585J72X//v3dtZYW6ZlkmIseTPxaL6Vh9B5MTBqGYRiJIAgRi6NHj3aXL192J0+ccGfPnnX79u51B72o3LVzl9uyZYs74L9zHP04cNAg13/AANcv5xC4DY93L+Lny86fASYmDcMwjFQQk8OHD3eXL12SHsoD+/e73Z995s6eOSPi8vDhI+7EieOyUOfsmbPu7Llz7sL5C66l5arr36+/CA1drJOGiZHuRfx82fkzTEwahmEYVbl+7ZobMniI27Fzp9u9e7f0PsKlixfd0SNH3Y7tO9z2bdvczh073NGjR921lmtuzOjRbsDAAW7QoEHSgwUmRLo3dv6MJExMGoZhGFVBNAz2YpJeyUOHDkkvJQtwON7S0iLf6b1kO6GjR4648+fOuStXr0qv5g3jx7eGYfRsmEfLfNqtW7e6Xbt2yTF6tzF2/nsu9gYcwzAMoyrDhg1zU6ZOcbNuucXNmjXLDRo8WEQkAoFtggYPGuRavJBASH6yerV75513ZMHO7t17UufVcVx7LI3uRXje9DxiLly4ID3TH330kWwpRS8282lDN0bPw8SkYRiGURXEIHMfFyxc4D73+ONuxowZ0usoAuHaNa8ouKH0cf369nODBg5ykyZNcosWLXITJ04Uv0kiguNJItNoLsJzp4IwPG98p0cS0fjRRx+7H//4J27z5i3enXNDhw6THm11Z+e7Z2Ji0jAMw6gKIgAxOX36dHfXkrvc3LlzRTBy7FpFYGD69u3jBg4a6MaNG+duueUWeVuOEooSo3uQdM5CQYi9rPQ/edLt2LHDbdq00a1fv8Efd+7GG290I0eOkjmzJiJ7NiYmDcMwjNwMHTrUTZkyxT308ENusReVAwcPdteuXXdXW666K960+O/9Bw50g4cMcUOHDXX9B/QXwRHvlTJh2fwknbe4KKRHEiHJm5JefPFFd+jQYbdgwQL3hS886T7/+c97QTnRDfB1IO7P6FnYAhzDMAwjN/RE9uvXT958Ayy2uHzligxxstBm2vRpbs6c2/znzW7QkMHu/IULlT0ooz0r8avCwgRG85N0jlhsxdxI3orEQpudO3e6vXv3utOnT7tJkyaLmJw79zb/0DFZzjm91UbPxt7NbRiGYeRGbxnXrl2TxRUrV650L77wolv61ltuyT13u8WLFrl58+fLKxg3bNrobzJONj1/+OGH3ezZs92oUaNEYIRomCYum5fwHLFin31F3333XbdmzRp38eJFmdYw35/32267TaY38NBQbX9Ro+dgYtIwDMMoBaKCbYI+Wr7crV79iZu/YL679dZbZa7c2XNn3Z49e922rVvd/v37ZbHO1KlT3bx589xNN90k8y3jcDsy8dG8cL7pgdy8ebPbsGGDiEidRztt2jQ5v+PHj3djx46t+LBz2lswMWkYhmHUBMOdiAwEBUPdA/r3l7l0iI23337bvf/++2779u1uyJAhbsmSJe6OO+6QoVCGytlWSHuwTHg0H/RAswUU+4ru27fPrVq1SnqjMbfffrucy0ceeUQEJQttOJchKjHC85p0zOjemJg0DMMwauLc+fPuvDfsRSmCoiIMW662uMNHDkvPJO/wZm4dwpNh75tvvlm2DqInc+TIkSIqTVw0H7IJ/dGjbsWKFe7TTz91Bw4caO1lnjNnjps5c6abMGGCHLNh7d6LiUnDMAyjZsIbSauc4KD/wdYxzK/cuHGj+/DDD2U+JbcethdCkNx00zQvSMaLyIz3bBldA+eMB4TPPvtMFtmsXbtWpjTQu0yP5D333COC8oYbbjABaZiYNAzDyAvNZb1unPUMq9khr4gT7eVat26d9HQdPHjIl0Fft2TJXWIWL17sBg4cWPGVTLVy01ta6CZ+LCuMauE3mqT0l6FoPkL3fD927JgISRbZMKTNfqH0Qt53330iIvlNb3K4mKory607UK9z24yYmDQMw8hJeMOtlXqG1V1g7p32UvKGlG3btoqgZB9CFuREvZQ3yQIe9rNMEpZ5yq2amyz7nnBeyAMUyQd+2OaJPSOZG8l0BN6tzbZOzJvkFZqsxuccMS0BEanxQHcvM6M2TEwahmHUQNEbd1H3PY3wloOoZFXwa6+95o4cOSJzLu+//373wAMPiKAcMWJExWX78oqXIb/j5Zl0rCjNfq7S8g0cT0q/HlPUDsGIiGRuK4umWLHN/MjHHnvMffGLX5S5razUVsJwmrV8jM7DxKRhGEYGNJFJN+xab6D1CKM7Q/7p9WI4lR4wVnszNw+Yl8fKcBbpsEqYeXn0hkFYbnyH7l6O9aoL8XCqlQ8bj9MTiajXxVGcD4Ql5U1vMb2R7BvJfFbOCyTF093PgVEbJiYNwzBSSLsZ1+PmaTfgCMqBN6ogJJmfR88Yq79vuGG8F5PTWvelnDhxomyEzfAqw998hm/TKUOznIOkdHAM8qYvyX14DIGIoawx+hpEeiNZGEUPMb9xy1D2woUL3V133SWbzCMiNdxq8RjV6YnlZWLSMAwjAZrGeGNvN83GgMihl/L48eMyh5LhVRZ/nDx5QlZ300tG7yTD3iz84N3g/GY7GgSlEp6zpPOXRNo5zeu/LI0KPy1c9olkTuThw4fF0APJ1AJWaDOPFT+6+Tg9krzRht5IFtlQxvFyanT5GN0LE5OGYRgJJN0s026gYa/P1astbsiQwR1eGWjk4+zZc/Kqvm3btnlRuV9EJtAbSfkjLlmcg8BEWCJ4MMy3ZBN03esw7VzF0Vtg3nNdLxoVPuFiWOzE6nkMWzHR64hhaJvN5IHeSUQmPY+UJ8PZ9AIj2hGRccI0N7p8ehPadlCm+s777oaJScMwjBJo08kNVW/Kp06d9jfri27ixPHSaxa6iYNdb78ZJ5VPKMx1OJYeNQQRAlMNgggRyZAsQ+EzZsyQoXBEvO5VGQ8/Kb6sc5REUfdZlA2rWj4oN/aI3LFjh0wfYBibqQNsyzR58mQpK4axmZNKGeq0Ad3qp6ggN/KRdt6o49RvHgCow90RE5OGYRglCG+0iJ2oN227O3z4iLv33ntkvh+ta9a9OAyjN6K3n7QywB6DUKdHjeHZgwcPyhA4w7P0tDEES28O74OmpxLDdx2mpZcNNyow43TlOaiW/zTCNCO8GaZm2Do01EcECnUTcYlgpCwYwmaaAHtFUkb08oZTBaA318nOhnNJ3ebtQnw++OCDFZvuhYlJwzCMgoQ3c+DGzUKG99//wG3fvsP97u9+2915553eTcWBR5va+I06HlZvIcx3WtkkoQtHWH28Zs0a6XnjO8cRTPS80ePGBtt8Ipx4xSO9bghKNUpXno88+VY3wHcMAlI/EYqnT5+W1fDaa8t70pkPiVBkOx+Gr3nb0Pz580Vsh1suKWE8nZX/3g5lTlkj+t966y05j3/0R39Use1emJg0DMOokTxiUtEbiNEmYIqUh/bE6YIdhCU3Y4Zw9TdDvLihx1J74xg+ZNEOvXEIKgQm4jMed3h+ss5VZ55H8oxhaF/fIkTvo+YZQ3kwTMowNfMf6ZUlz+SXFdn8Jt/kOWk+ZIjV0c6Dsqb+Ll261MSkYRhGb6aomAS7WUcUES5JZYfIoleSYW/mBTIETs8cK8IRlQgsRBSiSg3D4MxppecOYRUaFVuIMuJRE6dIuqtBWBjNC72NiGE1/GaoH8GIWKbXUYezOaaLaMgnApIV2Rg2fkdYJg3xJ5WlkmVn1B/OqYlJwzCMXgLNZdINNhSTO3bsdN/+NmLyDu82sk/z1xspWxZp/jiOUcFF7x2G+WeILuZYshk38y25WSPOEJiISXottdcOkUnPJcPCiE3sEJSY+JzCeqK9jqQfQy8VPY2kl/TT+4jYIO30SiI2EbsIYfKgcyBZha09rvTIas8r6TeaGxvmNgzD6EWkCZqOYvKfteuZTPPXGylbFln+4nb8RjCqMFMxyW8EGb15KuLwhzhDfA0dMtQNGzZUevkwg73R+Za6iKdf3+gTM2Bg1JNZLT9hjyOf/CZ9GBWRoQjG0Kuqx8gPhjhJD72NauiJxEyYMEG2R4Iy5Wt0HSYmDcMwjJRhbnom7abelagIU+GIeEOoISgZEmconJ5LnXvI8XNnzkZi8/o16Z0cWtm/Unv6Bg2IhsExI7yYGzV6lIg8znXS7ZTjiEXCZGW1rq6mh1SFI4KR4whI7XXUFen0NrKoiB5Ihq05jojEHWFr3GpIA59G98HEpGEYhmFishugtzoVcog7NaGou3ghWuTC75ZrUe+hGuldvBQNk3Nu6a3sNyAaRk4Schonn/jV3zovE7eIQR1Kx9Ajipikl5FPHc7GcAx7/KuINLo/JiYNwzAME5M9BO29VJHJzV2/02tI7+HpU6e94PRC07u7zBD11ejNJSF63jmO4TeCkd5NxCA9nohDejxVLNLbKD2h/jfucI+/sA5pPFavehYmJg3DMAwTkz0EFX/0IoZzHDGtPZP+GN+vX7suQ+HxW2jSLVXrgfY+0isZ9kbyXY9hwqHrJIgjbhc/luTGaE5MTBqGYRgmJnsgoRhLEmZZYq2o+6LkCb+e8RmNpSeIyeT3SxmGYRhGLyYUYkmiLEuoxUVdLcIOv0pWWPFjZeMzjDKYmDQMwzCMBoGoq5ewq2dYhlFPTEwahmEYRoWwJzAJ7R3sLLLEY2emwzCyMDFpGIZh9GpUIGIQb1kiTXsHiwq5ou7zYL2URrNgYtIwDMPo0ahQTCI8HoqzPOIv7iYrHsgTZlmqxW0YjcTEpGEYhtGj0d7EJNQutM9yr6ibUMDF/SXZqehLEn5Jx/ISj9swOhMTk4ZhGIZhGEZpTEwahmEYPZa8vX1pPYXV/Gf1BibZaQ9imp1hdEdMTBqGYRg9lrwCLU3cmcAzjOqYmDQMwzAMwzBKY2LSMAzDMAzDKI2JScMwDMMwDKM0JiYNwzAMwzCM0piYNAzDMAzDMEpjYtIwDMMwDMMojYlJwzAMwzAMozQmJg3DMAzDMIzSmJg0DMMwDMMwSmNi0jAMwzAMwyiNiUnDMAzDMAyjNCYmDcMwDMMwjNKYmDQMwzAMwzBKY2LSMAzDMAzDKI2JScMwDMMwDKM0JiYNwzAMwzCM0piYNAzDMAzDMEpjYtIwDMMwDMMojYlJwzAMwzAMozQmJg3DMAzDMIzSmJg0DMMwDMMwSmNi0jAMwzAMwyiNiUnDMAzDMAyjNCYmDcMwDMMwjNKYmDQMwzAMwzBKY2LSMAzDMAzDKI2JScMwDMMwDKM0JiYNwzAMwzCM0piYNAzDMAzDMEpjYtIwDMMwDMMojYlJwzAMwzAMozQmJg3DMAzDMIzSmJg0DMMwDMMwSmNi0jAMwzAMwyiNiUnDMAzDMAyjNCYmDcMwDMMwjNKYmDQMwzAMwzBKY2LSMAzDMAzDKI2JScMwDMMwDKM0JiYNwzAMwzCM0piYNAzDMAzDMEpjYtIwDKNBXL9+XYxhGEZPxsSkYRhGHenTp/KlQp/4AcMwjB6GiUnDMIw6EQnHNvEYCknrpTSM3k21NqA7tw8mJg3DMDoBhCUmfsMwgWkYvQNtA5T4tR/adTdMTBqGYdSd9j2UcUxAGobRkzAxaRiGUZJ0Ucjxjna4D3so9bdhGL2PnnTtm5g0DMNoENV6IE1IGobREzAxaRiGUZIsMahCMhSUoXsTkoZhKLQH3blNMDFpGIZRZ7gn6I3BRKNhGD0dE5OGYRh1oq0XMuplMCFpGEZvIJeY3L9/f+WbYRiGEYKADIey478h/huSjhmG0XOJtw3x7925TejjE9+a+l//+tfu+eefdwcOHOggIJ977jk3efLkyq/8EA5h3nXXXWI6g7/8y790kyZNcl//+tcrRwzDMBoDTejJkyelrVu6dJlbv36D+9KXvujmzJnd2jNJKxt95U/U5OKvfc+l9WIaRs9Er/noe/t2oY87d+6sW778I3f58mX3r/7VvxS77kY7MUljuHLlShGTCMBQUJYVk9/4xjdaw/mLv/iLhgvKf/fv/p2IYkBM/tt/+2/lu2EYRqM4deqUtJvPPvucCMoZM6a7sWPH+huFDv7QzDLsHd5Q+FRMSBpGT6VNZcW57vr27eeuXLni9uzZ40aMGOH+23/7vyt23Yt2YjIEAYgQVMqISYTpn/7pn1Z+dY64W7JkSeWbk/SSbsMwjEZy/vx56Z18++133IoVK93QoUPdwIEDW3sgWmlTkwn60QRlO1rLiXJJvRt3wEv2yrcEX+3CbAKS0hM/xu9mSW8DKZvDDue4GUk6p3x409cfQ4adPXvWjR492v2v/+v/W+y6G6liEsJexTJiMi5IO6NnEvGKiAXrmTQMo9HQhLa0tEjvwu49e92+ffvd1atX3bVr1youjDKEtya5B/dJvlW1cyeShL/RTTv00T68stKlfsRvvW1Dn8n5bIY0N5qiOUwuqe5B/Dz369fPDR8+zD1w/32VI92LhopJwD/iDr9pQpI5jhhA/NUy15H4GKKHP/mTP5FPwzCMRoJwxNC7cPbceXfNi0tpWtPujmGr2/M1Qjk63Jm0PLXAWLAQfWvTWWG/ZBBEPKy2INoIPXYWGj9xJ6Wxq9PXyZTJYrzYug2VhPNBvvv07eMGDBjoJt04UY53NxouJvNQTzFpGIbRFdCUxnuXsnqTQvdGOuEtKiwvjmsZVivHrPORZdfZaH6M3kVPOO+2z6RhGEZJVIgANwN+642h2s3BREM+tCzj5cXvvn37djjOGYmbJP9Kll1nQzq0Dhm9Bz3v3RkTk4ZhGHWiWUSJYRjdj+4sKPvs27fvOlta6JZAsHjxYhlqLjvMrX40PH7z/Wtf+1prGHoMmOOo2/kwzzE+tzLPop0wPP2Ovyy/OrSuczo132wvRFrzxGsYhmE0Dr3B5hXqjXbfSEiLPZD0TpqpHpahjxdMkgPEFAIKEYaw47eKQigiJuNbAinhfEjiQLRVA0HHKvBqhFsCKcSVtJqb9BE3+YvnW7G5m4ZhGN2TNFHW7DdsE5NGd0XEZHzLHkQWYgvRpRRdgEMY9Dhq7x+EAk17DwE3Gle8Z5I32eSNlzD/7M/+TD4hTUyq8EzKt/onHbYa3DCMMnT3XoZmh/JVo7/jZZ10TH/zqf6T5l12Fpr+MP5wSymOd1XajMaTVEe7K30RW6GgAsRbkggrAmEkDVkr2GOHCcUi4lGPx+2qgdvvf//7lV/JqLjV+EM49oMf/KDyyzAMoxwmAhoHN2D28eStQ7t27XLbtm0Ts3Urn9vd9u07xOzYsVN+c3yr/9y7b7+7cOGSu3jpsjt95qz83vXZbnf69Bl35cpVH24lgk5ChURYTxCSp0+fdocPH3YnTpyQzfBVcBo9j57URvRNG8pFWBURcmnUI4wiVItPe0PTwH9cZBqGYRjNAeLq0qVL7tChQ2716tVu+fLlrebDDyOzvPKp3z9a/pHbtOlTLyLPyF6gR48edRs3bnKrV632wu2Iu+wFZjOINsQk+dq5c6fbt2+fCGYTkz0HzmVPPZ+9bjU3PZ/AUHY4BB9CryzzKA3DMIzmgrcNnTt3zm3dulWmX/3sZ//gfvrTp8U8/dOfur9/6in3k6f+zv39j59yP/37n7inn/6p+/k//MwtfesNd+TIIXfMC8mdO3a4N1571T37zK/c9m1bfXhn/U2+c99YlNQrhZgkXx9++KFbt26d3KfIr9EziPdE9yR6nZgMex0Rk6xYD+dsQr16ZQ3DMIz6ws24f//+bsSIEW7q1Klu+vTp3sxw06ZNc6NGjXKHDx9yBw8elNdbjhk92s2cOdNNnzHd3XjjjW7I4MFu4MABbsiQwW7s2LFuwvjx/vsQ169fc9wK6bVimPvIkSM2zG10K3qlmAwX1mgPJavPEZbhim7DMAyjueAdxgjJefPmud/7vd+TefIsnPzud7/rvvrVr4pIHDN6jFu4cKH7xje/6f75//Ofixvdmm68F5AzZsxwT37hSfcb3/pNd8stt7hhw4fLQpxmQIdCVUT21J4so2fR68Qk0KgkrdRGWLKKPdxf0zAMw2gewp7JKVOmuJtvnuamTbtJPidNnuQGDRrkBg4a6EaPGeMm3jhRei9vuukmN2HCBLEbPHiwGzlylPRkIiRHjRnt+g8YQMCVGPKD3EvrN5Tj6iDLYQLkEdHcqQI3SF/B5BpG7xSTPJ0iJplvk7SaXUWlYRiG0XwgshCFY7xgpCdy7Ngx7oYbxrnRo0a5AV4YYoYNH+ZF40hxg0F89vMitG+//m7gwIFu2LDhcgyB2Y/tgXy4rBK/cOGCNxfd+fMX3JkzZ2URDEPODD8zV/Py5cvu4qVLspgHu5MnT7rz5867K5evuOvXIgmmQuy6/ydhXrzg3Z8WtxgNC7v4MLb2RHKcuM4E8fD94sWL7bYPwh2/CQs7wsYtaQ79YK/u+X7Wxx+3A8K6dOmipI+wNL54OkOwy7I3ej79/txT+d6Bp59+WiobfOc735ELryjLli1zW7Zske+PPfaYmzNnjnwPyeMmL6zWZn9LIBzCC0Eoaj74xA0r2umt5LfOnSQcRKbNnTQMw2h+mCNJu/3OsrdF/NwscymnS++lCDT/H72DQDp44KBbv26dbCk0cuQIN3ToUHGD/y1btsqcxT179roNG9a3rhg/4O8dZ7xf4mHF9ccffeQ++eQTWShz0QtQehIHDR4U9XJWYPEMbrdu2+pWrFgh7tesWeP27t0r6SBe5mwSNwb3mzdvlnSQB1ae8x0/+GUVOvGPHj1aBDMCDn8cO3bsmCze+eCDDyTNuN+0aZPEhT3pGz58uKyEx+1HPk+f+rg07SN8OQDzNLdv2+79bpR4CR/BzmdaT6mm3+i99KqeSYQkQ9jhYhtFeytr3V/TMAzD6Hykd8wLMP8t+lfpJWwjEjv0uO3bt9+tWrXaffjhB7K6G+EGRw4fdevXb3AbvNm6ZYtsz4NhP8uVK1e5ZUuXudWrVolo437C8Y0bNohQXL16lYi0q164kRZEGUJyzdq1buWKlbLdD37YQ3Lzp5vlPrR+/XoJP+wZBH7Ts4hbDIJy9+7dIhJXeX87duxwx48fF7f0XuJ2/br1Pk+rpGNmz+49EjdCkt8ff/SxxEVYpOuyF5R79uxxaz9Z49577z3JKz2yiFcWL5Ef0kz+bHsiIw99qdzNBBdNo9GeyyTCIW/dRsgwDMPoPvSRf+3hN71nF85fEKFFz9vaNWvdiZMnW7ffOX78mNu6eYv7dNOnci+64YYb3OzZs93cuXNFZHHveO3V19z2rdvcZH9/oNdz0KAhXuCtci+88IKIL12BffjQYbfmk7XuxRde9ILtfekVZNHQfffd59PhvN0n7rXXXpNeT4ScEg0zXxKBCPSu4o/5nXu9AFy6dKl78803RdAC4ph4X3zxRbf8ww/dkEGD3a233uruvfdeGXnr17efe+ONN9zLL70svZWIw6FDh4m7o0ePuBd8nj744EMRwghbejPJI4J63NixskKeaQFpvZImNA3oyyq4JHhqCoVmI0VeKNqSeg2LEKY5TSizYjtPPDbEbRiG0Z0QyRiNZ0OCzrnm7ej5Yy4gpuWqF5IVdy0t10RYIvy4L7GtEEJy0aJFMtSLyMMvw9MzvN2tt872bma4lmstMnTO0PWly5clLIbKGbI+dvSYG9B/gJs1a5aEhcBjNfnYMWPd/n37Zc9LnZcIiDMWGBEfi4cQkbfffrv4nThhoqSXcBF+wFQ0hr9PnT7lhgwe4hYsXOgW3rFQ/CxYsED8D/JikB7YDRs2SI/m0GFD3W233eZuveVWyTti9J133hGhSu9mi88jYpk4WbiUNoxNWm142wDpmQy3xOE3W+WwACUUU/qu7jSBlgRuQ9H2V3/1V4n+w95A3BMX6cGQliJxhr2OCOA00UgchB1CPLrwhvd2G4ZhGN2DSPBE39GGOuQdp693hFgbMGCgzDvs26etx61//34yh3HazdPcvIrwmz9/vluyZEkkAL3Ao7eSe2Mk8m5z8+bNlXmXl69cdpcuXnJXEJNeZB31YpK5hzBl6hQf3jx3+223u+k33ywiD7F3/tw5d2D/gQ5ikp7Am707ekWJB+FH7+TtPk3jxo2T4Wt6VwExSW8jC4lunjHdPfjQgyJ+EcJ33HGHu+POO6R3E+h1pAdymBfD3HfpJUWwEhb3TgxD3AjIxXct9iZaN2BC0qiGXEUqorhgdE4hK53DHkPcsBdjWk9mHN23MRSCfOeYCjaFSh2+1hERiRtM1pB0CMKQ9IfiUdNMnKDimLmR5A0/mh51hwBNWuFtGIZhNC+IG/+/HfyOjjOLMuq3FPzvPv4Iv9FD7SRRXw5UjAe/CD2GeUV8BsO9HL9aGSLv25etfNp68JjLeP48K6ZPuz27P5NevxdffEGGvd99513pJdQ5jCyQUTEZieIojPj3wV4wDvBCk95RnWdJTyqGtCFC1T2Qdoa56UlFQF+8QE+s90e4/frK1kmPfe5zXjyOl6H9o0eOysbud997j1vohShhphHGYxh9dXscxBwiix457ZXjON9xw9MKhu95CMOKGzaQjUNcatSvxpdnuJnV2PF41PzgBz+ouIp6HDV8wta0IB6Jm2Np7ys3DMMwmpk2NXk9rnW8sGqFr5Wf4kzdIrIqIimy9pKzVUxGez/GxRpD3CBCki2GvD1+W1oYSmebofMy5L1u7Vq34uMV7uOPP5b5jkeOHnF9fXiDK6u5CUtBsMbFGr8HDBwgopChbp3nSdowHMfEIV2DvEAk7Sy8UX+EN2r0aDd33lw3YsRIt48V5qdOuf79+rtbZs2SntGk8JIg7WH6jd5HX4Qa4klFXNgjhx2/84i5OPhLM2nhkQ4VtbgrgqY1yYTx8VvheJh3E5GGYRjdExFfMQGGSOS4mhCkj4ig6GcKbbZoJRVNIpyi/x3DiKehgsbPJ/tezr51tnv88cfdffff50aOGCFij7BCd/E0+6Oie6umuhKO+PcG9/y7dp39InEQpZ0eUZnn6UUmAhZReunyJVnVzaIgyWclvDjhseS0Gr2JXrU1kGEYhtFLyBI3alVx01EqQfxo+98q6CJ5p6YNeinp2WMuI+JxFnMs586NFtPMm+fmzZ8vC1x4E89A70bFWJaAo1dReiH79ZeN1kGFnA534y8UdrhnQ3UWF7EQCNFI2hnuPn7ihMyjREwyL5NXTeKO/Td37dwlQ+lJ6TCMOCYmDcMwjG6PiB4VPhUtFQq0dqIIAVaZG5kmldo7J5woLPleCVc8X0dOttlHHq9LTyNCkrfwsACGF2h8+Stf9uYr7tFHH3V3LrrT3TjpRlnwEw5rk04VhWGa+c7iHuxYna3zGYkH/8zRxMS55sXhhfPnRTzy1iAELmEhIBna5qUhfH/yySdlwQ+pWP7hcrdq1crW8EhbPD2a3pDQ3uhdmJg0DMMwegz0xMmG5Rnih+ORO28COamCKUkUqR+M/1E5qsfVTv32ERE5YeJEd/HSRXfk6FF3/sJ5cY+g27Z9m+z9iJDbuHFjOxGIf36zOIeV1wxFI/ZYtb1n7x45Ttj6JjfEKGEyXM0CUrYM4jvpYbiavSQ5RhiTp0xxw0cMl9XjLADi7T281Wfy5EnuUS92H3nkETfnttskjnXr1stG58z3hCTxGCePG6NnYmLSMAzDaFoQV5FAy0aEjDdxOYPfNJETCklF3Yd+NH49FsnFkEo46s4bhranTp3ihWH0mkcEHSKNd3Tr4tK33nrLffrpp+16ADH8ZpN0tuxBEPKObfx+tusz2SeS7YEIH1ipPWzYMFkVTjzbt+8Qv2xmjhAkXl4Fee1ai/SQsgk5btnAHEHJam+OM3fz4Ucfka2EmDe5bdtW2R2FXVHC/PNdfxuGYmLSMAzDaFpUYFUDFwP693cjR4+WVcq85YU5gnG/Ovw8YuRI726MGzhgYKswZGsdNizHnuHgyC/x93VDvGgjbHr2Bg1mC56+ju2A2KqHsHhfNnMfGXKGG2+8UbbXQZyN9sJv+fKP3DPPPOt+/vNfuC2bt7qhQ4bJW2rY0k7fDQ4IQ3od0Wuffbbbvfrq6+Lv+edf8KLylLx1Z/GSu9zNM2aIH9xyjH0oCefdd9/1bl90v/rVs+4Zb1Z8vFLinzdvvlu0eJH0aiJO2WQdDXz/A/e72XPmSFj6xp+77loigpVeU167KJu7t7StAte0GoZiYtIwDMPoAfSRhSmIJczQIUNc/wEdt7bp169vRTSO8O5GydxDL4/Eju8IsvZiEvq4wYOHiHveHjNokBeTffu4voTl/Qz3gm7kqJFyXOc/0gPI4hp6/UgPooyh49WrP3HHjh13w7zYvWXWLbK5OPGpSGPYetiw4RL/qVOn5d3aa9eu88Juk7ty9Yq7Yfx4N2PmDDd+/A2SMoa46aW86aabREDzNhtE4Np16yS+vXv3SVpuqqSF/LFS+9zZcz6OAe5WLx7Zd5m4R/gyuXHijW7mrJkiyOkNZUP0cB9Mw0iiz3XrrzYMwzAMwzBKYj2ThmEYhmEYRmlMTBqGYRiGYRilMTFpGIZhGIZhlMbEpGEYhmEYhlEaE5OGYRiGYRhGaUxMGoZhGIZhGKUxMWkYhmEYhmGUxsSkYRiGYRiGURoTk4ZhGIZhGEZpTEwahmEYhmEYpTExaRiGYRiGYZTGxKRhGIZhGIZRGhOThmEYhmEYRkmc+/8DXmr25H+YY88AAAAASUVORK5CYII=;" vertex="1" parent="1">
          <mxGeometry x="480" y="271.67" width="239" height="156.67" as="geometry" />
        </mxCell>
      </root>
    </mxGraphModel>
  </diagram>
</mxfile>
